<?xml version="1.0" encoding="utf-8"?>
<!-- Generator: Adobe Illustrator 27.0.1, SVG Export Plug-In . SVG Version: 6.00 Build 0)  -->
<svg version="1.1" id="_Слой_2" xmlns="http://www.w3.org/2000/svg" xmlns:xlink="http://www.w3.org/1999/xlink" x="0px"
	 y="0px" viewBox="0 0 319 79" style="enable-background:new 0 0 319 79;" xml:space="preserve">
<style type="text/css">
	.st0{fill:#161616;}
	.st1{fill:#009453;}
	.st2{fill:#0E7ABF;}
	.st3{fill:#FFFFFF;}
	.st4{fill:#010101;}
</style>
<rect x="-18.2" y="-579.2" class="st0" width="295" height="168.3"/>
<rect x="-818" y="-515.8" class="st0" width="295" height="168.3"/>
<rect x="-580.8" y="-147.2" class="st0" width="373.3" height="90.8"/>
<g>
	<path class="st1" d="M-462.4-130.8l2.6,2.6L-482-106l-9-9l15.8-15.8C-471.7-134.4-466-134.4-462.4-130.8L-462.4-130.8z"/>
	<path class="st1" d="M-452.8-121.2l7.3,7.3c3.5,3.5,3.6,9.3,0,12.9l-15.7,15.7L-475-99L-452.8-121.2L-452.8-121.2z"/>
	<path class="st2" d="M-510.6-90.3l-2.6-2.6l22.2-22.2l9,9l-15.7,15.7C-501.3-86.7-507.1-86.7-510.6-90.3L-510.6-90.3z"/>
	<path class="st2" d="M-520.2-99.8l-7.3-7.3c-3.5-3.5-3.6-9.3,0-12.9l15.8-15.7L-498-122L-520.2-99.8z"/>
	<g>
		<g>
			<path class="st3" d="M-412.9-104.2h9.3l-5.6-15.2l-9.5,25.7h-3.3l11.4-30.5h2.8l11.5,30.5h-3.3l-2.7-7.2h-11.9L-412.9-104.2
				L-412.9-104.2z"/>
			<path class="st3" d="M-395.4-93.1h-4.5l-2.7-7.2h-12.3l1.7-4.4h8.9l-4.8-13.1l-9.1,24.7h-4.5l11.8-31.6h3.6L-395.4-93.1
				L-395.4-93.1z M-399.2-94.2h2.2l-11-29.4h-2.1l-11,29.4h2.1l9.9-26.8l6.4,17.4h-9.7l-0.9,2.2h11.4L-399.2-94.2L-399.2-94.2z"/>
		</g>
		<g>
			<path class="st3" d="M-375.7-124.2h3.1v24.3c0,4.1-1.9,6.2-5.8,6.2h-6.9c-3.8,0-5.8-2.1-5.8-6.2v-9.1c0-4.1,1.9-6.1,5.8-6.1h7.8
				v3.3h-7.8c-1.8,0-2.7,1-2.7,2.9v9.1c0,1.9,0.9,2.9,2.7,2.9h6.9c1.8,0,2.8-1,2.8-2.9V-124.2z"/>
			<path class="st3" d="M-378.5-93.1h-6.9c-4.1,0-6.3-2.3-6.3-6.7v-9.1c0-4.4,2.2-6.7,6.3-6.7h8.4v4.4h-8.4c-1.5,0-2.2,0.7-2.2,2.3
				v9.1c0,1.6,0.7,2.4,2.2,2.4h6.9c1.5,0,2.2-0.7,2.2-2.4v-24.9h4.2v24.9C-372.1-95.4-374.3-93.1-378.5-93.1L-378.5-93.1z
				 M-385.3-114.5c-3.6,0-5.2,1.8-5.2,5.6v9.1c0,3.9,1.7,5.6,5.2,5.6h6.9c3.6,0,5.3-1.8,5.3-5.6v-23.8h-2v23.8
				c0,2.2-1.2,3.5-3.3,3.5h-6.9c-2.1,0-3.3-1.2-3.3-3.5v-9.1c0-2.2,1.2-3.4,3.3-3.4h7.3v-2.2C-378.1-114.5-385.3-114.5-385.3-114.5z
				"/>
		</g>
		<g>
			<path class="st3" d="M-351.4-115.1v3.3h-8c-1.8,0-2.8,1-2.8,2.9c0,1.9,0.9,2.9,2.8,2.9h4c3.9,0,5.8,2,5.8,6.1s-1.9,6.2-5.8,6.2
				h-8.8v-3.3h8.8c1.8,0,2.8-1,2.8-2.9s-0.9-2.9-2.8-2.9h-4c-3.9,0-5.8-2.1-5.8-6.2c0-4.1,1.9-6.1,5.8-6.1L-351.4-115.1
				L-351.4-115.1z"/>
			<path class="st3" d="M-355.4-93.1h-9.4v-4.4h9.4c1.5,0,2.2-0.7,2.2-2.4c0-1.6-0.7-2.3-2.2-2.3h-4c-4.2,0-6.4-2.3-6.4-6.7
				s2.2-6.7,6.4-6.7h8.5v4.4h-8.5c-1.5,0-2.2,0.7-2.2,2.3s0.7,2.4,2.2,2.4h4c4.2,0,6.4,2.3,6.4,6.7C-349-95.5-351.2-93.1-355.4-93.1
				L-355.4-93.1z M-363.7-94.2h8.3c3.6,0,5.3-1.8,5.3-5.6s-1.7-5.6-5.3-5.6h-4c-2.1,0-3.3-1.2-3.3-3.5c0-2.2,1.2-3.4,3.3-3.4h7.5
				v-2.2h-7.5c-3.6,0-5.3,1.8-5.3,5.6c0,3.8,1.7,5.6,5.3,5.6h4c2.1,0,3.3,1.2,3.3,3.4s-1.2,3.5-3.3,3.5h-8.3V-94.2L-363.7-94.2z"/>
		</g>
		<g>
			<path class="st3" d="M-325.4-96.9v3.3h-11.6c-3.8,0-5.8-2.1-5.8-6.2V-118c0-4.1,1.9-6.2,5.8-6.2h11.6v3.3h-11.6
				c-1.8,0-2.7,1-2.7,2.9v18.1c0,1.9,0.9,2.9,2.7,2.9C-337.1-96.9-325.4-96.9-325.4-96.9z"/>
			<path class="st3" d="M-324.9-93.1h-12.2c-4.1,0-6.3-2.3-6.3-6.7V-118c0-4.4,2.2-6.7,6.3-6.7h12.2v4.4h-12.2
				c-1.5,0-2.2,0.7-2.2,2.3v18.1c0,1.6,0.7,2.4,2.2,2.4h12.2V-93.1L-324.9-93.1z M-337.1-123.6c-3.6,0-5.2,1.8-5.2,5.6v18.1
				c0,3.9,1.7,5.6,5.2,5.6h11.1v-2.2h-11.1c-2.1,0-3.3-1.2-3.3-3.5V-118c0-2.2,1.2-3.4,3.3-3.4h11.1v-2.2L-337.1-123.6L-337.1-123.6
				z"/>
		</g>
		<g>
			<path class="st3" d="M-316.9-111.8v-3.3h10.9c3.9,0,5.8,2,5.8,6.1v9.1c0,4.1-1.9,6.2-5.8,6.2h-6.9c-3.9,0-5.8-1.9-5.8-5.8v-0.8
				c0-3.8,1.9-5.7,5.8-5.7h7.8v3.3h-7.8c-1.8,0-2.7,0.8-2.7,2.5v0.8c0,1.7,0.9,2.5,2.7,2.5h6.9c1.8,0,2.7-1,2.7-2.9v-9.1
				c0-1.9-0.9-2.9-2.7-2.9L-316.9-111.8L-316.9-111.8z"/>
			<path class="st3" d="M-305.9-93.1h-6.9c-4.2,0-6.3-2.2-6.3-6.3v-0.8c0-4.1,2.2-6.3,6.3-6.3h8.3v4.4h-8.3c-1.5,0-2.2,0.6-2.2,1.9
				v0.8c0,1.4,0.6,2,2.2,2h6.9c1.5,0,2.2-0.7,2.2-2.4v-9.1c0-1.6-0.7-2.3-2.2-2.3h-11.5v-4.4h11.5c4.2,0,6.3,2.3,6.3,6.7v9.1
				C-299.6-95.4-301.8-93.1-305.9-93.1z M-312.8-105.4c-3.6,0-5.3,1.6-5.3,5.2v0.8c0,3.6,1.7,5.3,5.3,5.3h6.9c3.6,0,5.3-1.8,5.3-5.6
				v-9.1c0-3.8-1.7-5.6-5.3-5.6h-10.4v2.2h10.4c2.1,0,3.3,1.2,3.3,3.4v9.1c0,2.2-1.2,3.5-3.3,3.5h-6.9c-2.1,0-3.3-1.1-3.3-3.1v-0.8
				c0-1.9,1.2-3,3.3-3h7.2v-2.2L-312.8-105.4L-312.8-105.4z"/>
		</g>
		<g>
			<path class="st3" d="M-289.1-93.7h-3v-15.3c0-4.1,1.9-6.1,5.8-6.1h2.4v3.3h-2.4c-1.8,0-2.7,1-2.7,2.9
				C-289.1-108.9-289.1-93.7-289.1-93.7z"/>
			<path class="st3" d="M-288.5-93.1h-4.1v-15.8c0-4.4,2.2-6.7,6.3-6.7h3v4.4h-3c-1.5,0-2.2,0.7-2.2,2.3L-288.5-93.1L-288.5-93.1z
				 M-291.6-94.2h2v-14.7c0-2.2,1.2-3.4,3.3-3.4h1.9v-2.2h-1.9c-3.6,0-5.2,1.8-5.2,5.6L-291.6-94.2L-291.6-94.2z"/>
		</g>
		<g>
			<path class="st3" d="M-262.8-124.2h3.1v24.3c0,4.1-1.9,6.2-5.8,6.2h-6.9c-3.8,0-5.8-2.1-5.8-6.2v-9.1c0-4.1,1.9-6.1,5.8-6.1h7.8
				v3.3h-7.8c-1.8,0-2.7,1-2.7,2.9v9.1c0,1.9,0.9,2.9,2.7,2.9h6.9c1.8,0,2.8-1,2.8-2.9V-124.2z"/>
			<path class="st3" d="M-265.6-93.1h-6.9c-4.1,0-6.3-2.3-6.3-6.7v-9.1c0-4.4,2.2-6.7,6.3-6.7h8.4v4.4h-8.4c-1.5,0-2.2,0.7-2.2,2.3
				v9.1c0,1.6,0.7,2.4,2.2,2.4h6.9c1.5,0,2.2-0.7,2.2-2.4v-24.9h4.2v24.9C-259.2-95.4-261.4-93.1-265.6-93.1L-265.6-93.1z
				 M-272.4-114.5c-3.6,0-5.2,1.8-5.2,5.6v9.1c0,3.9,1.7,5.6,5.2,5.6h6.9c3.6,0,5.3-1.8,5.3-5.6v-23.8h-2v23.8
				c0,2.2-1.2,3.5-3.3,3.5h-6.9c-2.1,0-3.3-1.2-3.3-3.5v-9.1c0-2.2,1.2-3.4,3.3-3.4h7.3v-2.2C-265.2-114.5-272.4-114.5-272.4-114.5z
				"/>
		</g>
	</g>
</g>
<g id="_Слой_1-2_00000054259723392362757320000004025434033535058064_">
	<g>
		<path class="st1" d="M-471.4-323.7l2.9,2.9l-25.1,25.1l-10.2-10.2l17.8-17.8C-481.9-327.7-475.4-327.7-471.4-323.7L-471.4-323.7z"
			/>
		<path class="st1" d="M-460.5-312.8l8.3,8.3c4,4,4,10.6,0,14.6l-17.8,17.8l-15.6-15.6L-460.5-312.8L-460.5-312.8z"/>
		<path class="st2" d="M-526-277.8l-2.9-2.9l25.1-25.1l10.2,10.2l-17.8,17.8C-515.4-273.7-521.9-273.7-526-277.8L-526-277.8z"/>
		<path class="st2" d="M-536.8-288.6l-8.3-8.3c-4-4-4-10.6,0-14.6l17.8-17.8l15.6,15.6L-536.8-288.6z"/>
		<g>
			<g>
				<path class="st4" d="M-415.3-293.5h10.6l-6.3-17.2l-10.7,29.1h-3.7l12.9-34.6h3.2l13,34.6h-3.8l-3.1-8.2h-13.4L-415.3-293.5
					L-415.3-293.5z"/>
				<path class="st4" d="M-395.5-281h-5.1l-3.1-8.2h-13.9l1.9-5h10.1l-5.4-14.8l-10.3,28h-5.1l13.4-35.8h4.1L-395.5-281L-395.5-281z
					 M-399.8-282.2h2.4l-12.5-33.3h-2.3l-12.4,33.3h2.4l11.2-30.3l7.2,19.7h-11l-1,2.5h12.9L-399.8-282.2L-399.8-282.2z"/>
			</g>
			<g>
				<path class="st4" d="M-373.2-316.1h3.5v27.5c0,4.7-2.2,7-6.6,7h-7.8c-4.4,0-6.5-2.3-6.5-7v-10.3c0-4.6,2.2-7,6.5-7h8.9v3.7h-8.9
					c-2.1,0-3.1,1.1-3.1,3.3v10.3c0,2.2,1,3.3,3.1,3.3h7.8c2.1,0,3.1-1.1,3.1-3.3V-316.1z"/>
				<path class="st4" d="M-376.3-281h-7.8c-4.7,0-7.1-2.6-7.1-7.6v-10.3c0-5,2.5-7.6,7.1-7.6h9.5v5h-9.5c-1.7,0-2.4,0.8-2.4,2.6
					v10.3c0,1.9,0.8,2.7,2.4,2.7h7.8c1.7,0,2.5-0.8,2.5-2.7v-28.2h4.7v28.2C-369.1-283.6-371.6-281-376.3-281L-376.3-281z
					 M-384.1-305.2c-4,0-5.9,2-5.9,6.3v10.3c0,4.4,1.9,6.4,5.9,6.4h7.8c4.1,0,6-2,6-6.4v-26.9h-2.2v26.9c0,2.5-1.3,3.9-3.7,3.9h-7.8
					c-2.4,0-3.7-1.4-3.7-3.9v-10.3c0-2.5,1.3-3.9,3.7-3.9h8.2v-2.5C-375.9-305.2-384.1-305.2-384.1-305.2z"/>
			</g>
			<g>
				<path class="st4" d="M-345.7-305.8v3.7h-9.1c-2.1,0-3.1,1.1-3.1,3.3c0,2.2,1,3.3,3.1,3.3h4.6c4.4,0,6.6,2.3,6.6,7
					c0,4.6-2.2,7-6.6,7h-10v-3.7h10c2.1,0,3.1-1.1,3.1-3.3c0-2.2-1-3.3-3.1-3.3h-4.6c-4.4,0-6.6-2.3-6.6-7c0-4.7,2.2-7,6.6-7
					L-345.7-305.8L-345.7-305.8z"/>
				<path class="st4" d="M-350.2-281h-10.6v-5h10.6c1.7,0,2.5-0.8,2.5-2.7c0-1.9-0.8-2.6-2.5-2.6h-4.6c-4.7,0-7.2-2.6-7.2-7.6
					c0-5,2.5-7.6,7.2-7.6h9.7v5h-9.7c-1.7,0-2.5,0.8-2.5,2.6c0,1.8,0.8,2.7,2.5,2.7h4.6c4.7,0,7.2,2.6,7.2,7.6S-345.4-281-350.2-281
					L-350.2-281z M-359.6-282.2h9.4c4.1,0,6-2,6-6.4s-1.9-6.3-6-6.3h-4.6c-2.4,0-3.7-1.4-3.7-3.9s1.3-3.9,3.7-3.9h8.4v-2.5h-8.4
					c-4.1,0-6,2-6,6.3s1.9,6.4,6,6.4h4.6c2.4,0,3.7,1.4,3.7,3.9s-1.3,3.9-3.7,3.9h-9.4V-282.2L-359.6-282.2z"/>
			</g>
			<g>
				<path class="st4" d="M-316.3-285.3v3.7h-13.2c-4.4,0-6.5-2.3-6.5-7v-20.5c0-4.7,2.2-7,6.5-7h13.2v3.8h-13.2
					c-2.1,0-3.1,1.1-3.1,3.3v20.5c0,2.2,1,3.3,3.1,3.3C-329.4-285.3-316.3-285.3-316.3-285.3z"/>
				<path class="st4" d="M-315.6-281h-13.8c-4.7,0-7.1-2.6-7.1-7.6v-20.5c0-5,2.5-7.6,7.1-7.6h13.8v5h-13.8c-1.7,0-2.5,0.8-2.5,2.6
					v20.5c0,1.9,0.8,2.7,2.5,2.7h13.8V-281L-315.6-281z M-329.4-315.5c-4,0-5.9,2-5.9,6.4v20.5c0,4.4,1.9,6.4,5.9,6.4h12.5v-2.5
					h-12.5c-2.4,0-3.7-1.4-3.7-3.9v-20.5c0-2.5,1.3-3.9,3.7-3.9h12.5v-2.5L-329.4-315.5L-329.4-315.5z"/>
			</g>
			<g>
				<path class="st4" d="M-306.6-302.1v-3.7h12.4c4.4,0,6.6,2.3,6.6,7v10.3c0,4.7-2.2,7-6.6,7h-7.8c-4.4,0-6.6-2.2-6.6-6.6v-0.9
					c0-4.3,2.2-6.5,6.6-6.5h8.8v3.7h-8.8c-2,0-3.1,0.9-3.1,2.8v0.9c0,1.9,1,2.9,3.1,2.9h7.8c2,0,3.1-1.1,3.1-3.3v-10.3
					c0-2.2-1-3.3-3.1-3.3L-306.6-302.1L-306.6-302.1z"/>
				<path class="st4" d="M-294.2-281h-7.8c-4.7,0-7.2-2.5-7.2-7.2v-0.9c0-4.6,2.5-7.1,7.2-7.1h9.4v5h-9.4c-1.7,0-2.5,0.6-2.5,2.1
					v0.9c0,1.6,0.7,2.2,2.5,2.2h7.8c1.7,0,2.5-0.8,2.5-2.7v-10.3c0-1.8-0.8-2.6-2.5-2.6h-13v-5h13c4.7,0,7.2,2.6,7.2,7.6v10.3
					C-287-283.6-289.5-281-294.2-281z M-302-294.9c-4.1,0-5.9,1.9-5.9,5.9v0.9c0,4.1,1.9,5.9,5.9,5.9h7.8c4.1,0,6-2,6-6.4v-10.3
					c0-4.3-1.9-6.3-6-6.3h-11.8v2.5h11.8c2.4,0,3.7,1.4,3.7,3.9v10.3c0,2.5-1.3,3.9-3.7,3.9h-7.8c-2.4,0-3.7-1.2-3.7-3.5v-0.9
					c0-2.2,1.3-3.4,3.7-3.4h8.2v-2.5L-302-294.9L-302-294.9z"/>
			</g>
			<g>
				<path class="st4" d="M-275.1-281.6h-3.5v-17.3c0-4.6,2.2-7,6.5-7h2.7v3.7h-2.7c-2,0-3.1,1.1-3.1,3.3
					C-275.1-298.9-275.1-281.6-275.1-281.6z"/>
				<path class="st4" d="M-274.4-281h-4.7v-17.9c0-5,2.5-7.6,7.1-7.6h3.4v5h-3.4c-1.7,0-2.5,0.8-2.5,2.6L-274.4-281L-274.4-281z
					 M-277.9-282.2h2.2v-16.7c0-2.5,1.3-3.9,3.7-3.9h2.1v-2.5h-2.1c-4,0-5.9,2-5.9,6.3L-277.9-282.2L-277.9-282.2z"/>
			</g>
			<g>
				<path class="st4" d="M-245.3-316.1h3.5v27.5c0,4.7-2.2,7-6.6,7h-7.8c-4.4,0-6.5-2.3-6.5-7v-10.3c0-4.6,2.2-7,6.5-7h8.8v3.7h-8.8
					c-2,0-3.1,1.1-3.1,3.3v10.3c0,2.2,1,3.3,3.1,3.3h7.8c2.1,0,3.1-1.1,3.1-3.3V-316.1z"/>
				<path class="st4" d="M-248.5-281h-7.8c-4.7,0-7.1-2.6-7.1-7.6v-10.3c0-5,2.5-7.6,7.1-7.6h9.5v5h-9.5c-1.7,0-2.5,0.8-2.5,2.6
					v10.3c0,1.9,0.8,2.7,2.5,2.7h7.8c1.7,0,2.5-0.8,2.5-2.7v-28.2h4.7v28.2C-241.2-283.6-243.7-281-248.5-281L-248.5-281z
					 M-256.2-305.2c-4,0-5.9,2-5.9,6.3v10.3c0,4.4,1.9,6.4,5.9,6.4h7.8c4.1,0,6-2,6-6.4v-26.9h-2.2v26.9c0,2.5-1.3,3.9-3.7,3.9h-7.8
					c-2.4,0-3.7-1.4-3.7-3.9v-10.3c0-2.5,1.3-3.9,3.7-3.9h8.2v-2.5C-248-305.2-256.2-305.2-256.2-305.2z"/>
			</g>
		</g>
	</g>
</g>
<g id="_Слой_1-2_00000076604892118910444680000007776067459034463883_">
	<g>
		<path class="st1" d="M82.8,16.5l2.9,2.9L60.6,44.6L50.4,34.4l17.8-17.8C72.3,12.5,78.8,12.5,82.8,16.5L82.8,16.5z"/>
		<path class="st1" d="M93.7,27.4l8.3,8.3c4,4,4,10.6,0,14.6L84.1,68.1L68.5,52.5L93.7,27.4L93.7,27.4z"/>
		<path class="st2" d="M28.2,62.4l-2.9-2.9l25.1-25.1l10.2,10.2L42.8,62.4C38.8,66.5,32.2,66.5,28.2,62.4L28.2,62.4z"/>
		<path class="st2" d="M17.4,51.6l-8.3-8.3c-4-4-4-10.6,0-14.6l17.8-17.8l15.6,15.6L17.4,51.6z"/>
		<g>
			<g>
				<path class="st4" d="M138.9,46.7h10.6l-6.3-17.2l-10.7,29.1h-3.7l12.9-34.5h3.2l13,34.5H154l-3.1-8.2h-13.4L138.9,46.7
					L138.9,46.7z"/>
				<path class="st4" d="M158.7,59.2h-5.1l-3.1-8.2h-13.9l1.9-5h10.1l-5.4-14.8l-10.3,28h-5.1l13.4-35.8h4.1L158.7,59.2L158.7,59.2z
					 M154.4,58h2.4l-12.5-33.3H142L129.6,58h2.4l11.2-30.3l7.2,19.7h-11l-1,2.5h12.9L154.4,58L154.4,58z"/>
			</g>
			<g>
				<path class="st4" d="M181,24.1h3.5v27.5c0,4.7-2.2,7-6.6,7h-7.8c-4.4,0-6.5-2.3-6.5-7V41.3c0-4.6,2.2-7,6.5-7h8.9v3.7h-8.9
					c-2.1,0-3.1,1.1-3.1,3.3v10.3c0,2.2,1,3.3,3.1,3.3h7.8c2.1,0,3.1-1.1,3.1-3.3V24.1z"/>
				<path class="st4" d="M177.9,59.2h-7.8c-4.7,0-7.1-2.6-7.1-7.6V41.3c0-5,2.5-7.6,7.1-7.6h9.5v5h-9.5c-1.7,0-2.4,0.8-2.4,2.6v10.3
					c0,1.9,0.8,2.7,2.4,2.7h7.8c1.7,0,2.5-0.8,2.5-2.7V23.4h4.7v28.2C185.1,56.6,182.6,59.2,177.9,59.2L177.9,59.2z M170.1,35
					c-4,0-5.9,2-5.9,6.3v10.3c0,4.4,1.9,6.4,5.9,6.4h7.8c4.1,0,6-2,6-6.4V24.7h-2.2v26.9c0,2.5-1.3,3.9-3.7,3.9h-7.8
					c-2.4,0-3.7-1.4-3.7-3.9V41.3c0-2.5,1.3-3.9,3.7-3.9h8.2V35C178.3,35,170.1,35,170.1,35z"/>
			</g>
			<g>
				<path class="st4" d="M208.5,34.4v3.7h-9.1c-2.1,0-3.1,1.1-3.1,3.3s1,3.3,3.1,3.3h4.6c4.4,0,6.6,2.3,6.6,7s-2.2,7-6.6,7h-10v-3.7
					h10c2.1,0,3.1-1.1,3.1-3.3s-1-3.3-3.1-3.3h-4.6c-4.4,0-6.6-2.3-6.6-7s2.2-7,6.6-7L208.5,34.4L208.5,34.4z"/>
				<path class="st4" d="M204,59.2h-10.6v-5H204c1.7,0,2.5-0.8,2.5-2.7S205.7,49,204,49h-4.6c-4.7,0-7.2-2.6-7.2-7.6
					s2.5-7.6,7.2-7.6h9.7v5h-9.7c-1.7,0-2.5,0.8-2.5,2.6s0.8,2.7,2.5,2.7h4.6c4.7,0,7.2,2.6,7.2,7.6S208.7,59.2,204,59.2L204,59.2z
					 M194.6,58h9.4c4.1,0,6-2,6-6.4s-1.9-6.3-6-6.3h-4.6c-2.4,0-3.7-1.4-3.7-3.9s1.3-3.9,3.7-3.9h8.4V35h-8.4c-4.1,0-6,2-6,6.3
					s1.9,6.4,6,6.4h4.6c2.4,0,3.7,1.4,3.7,3.9s-1.3,3.9-3.7,3.9h-9.4V58L194.6,58z"/>
			</g>
			<g>
				<path class="st4" d="M237.9,54.9v3.7h-13.2c-4.4,0-6.5-2.3-6.5-7V31.1c0-4.7,2.2-7,6.5-7h13.2v3.8h-13.2c-2.1,0-3.1,1.1-3.1,3.3
					v20.5c0,2.2,1,3.3,3.1,3.3C224.8,54.9,237.9,54.9,237.9,54.9z"/>
				<path class="st4" d="M238.6,59.2h-13.8c-4.7,0-7.1-2.6-7.1-7.6V31.1c0-5,2.5-7.6,7.1-7.6h13.8v5h-13.8c-1.7,0-2.4,0.8-2.4,2.6
					v20.5c0,1.9,0.8,2.7,2.4,2.7h13.8V59.2L238.6,59.2z M224.8,24.7c-4,0-5.9,2-5.9,6.4v20.5c0,4.4,1.9,6.4,5.9,6.4h12.6v-2.5h-12.6
					c-2.4,0-3.7-1.4-3.7-3.9V31.1c0-2.5,1.3-3.9,3.7-3.9h12.6v-2.5L224.8,24.7L224.8,24.7z"/>
			</g>
			<g>
				<path class="st4" d="M247.6,38.1v-3.7H260c4.4,0,6.6,2.3,6.6,7v10.3c0,4.7-2.2,7-6.6,7h-7.8c-4.4,0-6.6-2.2-6.6-6.6v-0.9
					c0-4.3,2.2-6.5,6.6-6.5h8.8v3.7h-8.8c-2.1,0-3.1,0.9-3.1,2.8V52c0,1.9,1,2.9,3.1,2.9h7.8c2,0,3.1-1.1,3.1-3.3V41.3
					c0-2.2-1-3.3-3.1-3.3L247.6,38.1L247.6,38.1z"/>
				<path class="st4" d="M260,59.2h-7.8c-4.7,0-7.2-2.5-7.2-7.2v-0.9c0-4.7,2.5-7.1,7.2-7.1h9.4v5h-9.4c-1.7,0-2.4,0.6-2.4,2.2V52
					c0,1.6,0.7,2.2,2.4,2.2h7.8c1.7,0,2.4-0.8,2.4-2.7V41.3c0-1.8-0.8-2.6-2.4-2.6h-13v-5h13c4.7,0,7.2,2.6,7.2,7.6v10.3
					C267.2,56.6,264.7,59.2,260,59.2z M252.2,45.3c-4.1,0-5.9,1.9-5.9,5.9V52c0,4.1,1.9,6,5.9,6h7.8c4.1,0,6-2,6-6.4V41.3
					c0-4.3-1.9-6.3-5.9-6.3h-11.8v2.5H260c2.4,0,3.7,1.4,3.7,3.9v10.3c0,2.5-1.3,3.9-3.7,3.9h-7.8c-2.4,0-3.7-1.2-3.7-3.5v-0.9
					c0-2.2,1.3-3.4,3.7-3.4h8.2v-2.5L252.2,45.3L252.2,45.3z"/>
			</g>
			<g>
				<path class="st4" d="M279.1,58.6h-3.5V41.3c0-4.6,2.2-7,6.5-7h2.7v3.7h-2.7c-2,0-3.1,1.1-3.1,3.3
					C279.1,41.3,279.1,58.6,279.1,58.6z"/>
				<path class="st4" d="M279.7,59.2h-4.7V41.3c0-5,2.5-7.6,7.1-7.6h3.4v5h-3.4c-1.7,0-2.5,0.8-2.5,2.6L279.7,59.2L279.7,59.2z
					 M276.3,58h2.2V41.3c0-2.5,1.3-3.9,3.7-3.9h2.1V35h-2.1c-4,0-5.9,2-5.9,6.3L276.3,58L276.3,58z"/>
			</g>
			<g>
				<path class="st4" d="M308.8,24.1h3.5v27.5c0,4.7-2.2,7-6.6,7H298c-4.4,0-6.5-2.3-6.5-7V41.3c0-4.6,2.2-7,6.5-7h8.9v3.7H298
					c-2,0-3.1,1.1-3.1,3.3v10.3c0,2.2,1,3.3,3.1,3.3h7.8c2.1,0,3.1-1.1,3.1-3.3V24.1z"/>
				<path class="st4" d="M305.7,59.2H298c-4.7,0-7.1-2.6-7.1-7.6V41.3c0-5,2.5-7.6,7.1-7.6h9.5v5H298c-1.7,0-2.5,0.8-2.5,2.6v10.3
					c0,1.9,0.8,2.7,2.5,2.7h7.8c1.7,0,2.5-0.8,2.5-2.7V23.4h4.7v28.2C313,56.6,310.5,59.2,305.7,59.2L305.7,59.2z M298,35
					c-4,0-5.9,2-5.9,6.3v10.3c0,4.4,1.9,6.4,5.9,6.4h7.8c4.1,0,6-2,6-6.4V24.7h-2.2v26.9c0,2.5-1.3,3.9-3.7,3.9H298
					c-2.4,0-3.7-1.4-3.7-3.9V41.3c0-2.5,1.3-3.9,3.7-3.9h8.2V35C306.2,35,298,35,298,35z"/>
			</g>
		</g>
	</g>
</g>
<g id="_Слой_1-2_00000069362773685980837380000007614593820622567575_">
	<g>
		<path class="st1" d="M-468-239.9l2.9,2.9l-25.1,25.1l-10.2-10.2l17.8-17.8C-478.6-243.9-472.1-243.9-468-239.9L-468-239.9z"/>
		<path class="st1" d="M-457.2-229.1l8.3,8.3c4,4,4,10.6,0,14.6l-17.8,17.8l-15.6-15.6L-457.2-229.1L-457.2-229.1z"/>
		<path class="st2" d="M-522.7-194l-2.9-2.9l25.1-25.1l10.2,10.2l-17.8,17.8C-512.1-190-518.6-190-522.7-194L-522.7-194z"/>
		<path class="st2" d="M-533.5-204.8l-8.3-8.3c-4-4-4-10.6,0-14.6l17.8-17.8l15.6,15.6L-533.5-204.8z"/>
		<g>
			<g>
				<path class="st3" d="M-411.9-209.7h10.6l-6.3-17.2l-10.7,29.1h-3.7l12.9-34.5h3.2l13,34.5h-3.8l-3.1-8.2h-13.4L-411.9-209.7
					L-411.9-209.7z"/>
				<path class="st3" d="M-392.2-197.2h-5.1l-3.1-8.2h-13.9l1.9-4.9h10.1l-5.4-14.8l-10.3,27.9h-5.1l13.4-35.8h4.1L-392.2-197.2
					L-392.2-197.2z M-396.5-198.4h2.5l-12.5-33.3h-2.3l-12.4,33.3h2.4l11.2-30.3l7.2,19.7h-11l-1,2.5h12.9L-396.5-198.4
					L-396.5-198.4z"/>
			</g>
			<g>
				<path class="st3" d="M-369.9-232.4h3.5v27.5c0,4.7-2.2,7-6.6,7h-7.8c-4.4,0-6.5-2.3-6.5-7v-10.3c0-4.6,2.2-7,6.5-7h8.9v3.7h-8.9
					c-2,0-3.1,1.1-3.1,3.3v10.3c0,2.2,1,3.3,3.1,3.3h7.8c2.1,0,3.1-1.1,3.1-3.3V-232.4z"/>
				<path class="st3" d="M-373-197.2h-7.8c-4.7,0-7.1-2.6-7.1-7.6v-10.3c0-5,2.5-7.6,7.1-7.6h9.5v4.9h-9.5c-1.7,0-2.5,0.8-2.5,2.6
					v10.3c0,1.9,0.8,2.7,2.5,2.7h7.8c1.7,0,2.5-0.8,2.5-2.7V-233h4.7v28.2C-365.8-199.8-368.3-197.2-373-197.2L-373-197.2z
					 M-380.8-221.4c-4,0-5.9,2-5.9,6.3v10.3c0,4.4,1.9,6.4,5.9,6.4h7.8c4.1,0,6-2,6-6.4v-26.9h-2.2v26.9c0,2.5-1.3,3.9-3.7,3.9h-7.8
					c-2.4,0-3.7-1.4-3.7-3.9v-10.3c0-2.5,1.3-3.9,3.7-3.9h8.2v-2.5C-372.5-221.4-380.8-221.4-380.8-221.4z"/>
			</g>
			<g>
				<path class="st3" d="M-342.4-222.1v3.7h-9.1c-2.1,0-3.1,1.1-3.1,3.3s1,3.3,3.1,3.3h4.6c4.4,0,6.6,2.3,6.6,7s-2.2,7-6.6,7h-10
					v-3.7h10c2.1,0,3.1-1.1,3.1-3.3c0-2.2-1-3.3-3.1-3.3h-4.6c-4.4,0-6.6-2.3-6.6-7s2.2-7,6.6-7L-342.4-222.1L-342.4-222.1z"/>
				<path class="st3" d="M-346.9-197.2h-10.6v-4.9h10.6c1.7,0,2.5-0.8,2.5-2.7c0-1.9-0.8-2.6-2.5-2.6h-4.6c-4.7,0-7.2-2.6-7.2-7.6
					s2.5-7.6,7.2-7.6h9.7v4.9h-9.7c-1.7,0-2.5,0.8-2.5,2.6s0.8,2.7,2.5,2.7h4.6c4.7,0,7.2,2.6,7.2,7.6S-342.1-197.2-346.9-197.2
					L-346.9-197.2z M-356.2-198.4h9.4c4.1,0,6-2,6-6.4s-1.9-6.3-6-6.3h-4.6c-2.4,0-3.7-1.4-3.7-3.9s1.3-3.9,3.7-3.9h8.4v-2.5h-8.4
					c-4.1,0-6,2-6,6.3c0,4.3,1.9,6.4,6,6.4h4.6c2.4,0,3.7,1.4,3.7,3.9s-1.3,3.9-3.7,3.9h-9.4V-198.4L-356.2-198.4z"/>
			</g>
			<g>
				<path class="st3" d="M-312.9-201.5v3.7h-13.2c-4.4,0-6.5-2.3-6.5-7v-20.5c0-4.7,2.2-7,6.5-7h13.2v3.8h-13.2
					c-2,0-3.1,1.1-3.1,3.3v20.5c0,2.2,1,3.3,3.1,3.3C-326.1-201.5-312.9-201.5-312.9-201.5z"/>
				<path class="st3" d="M-312.3-197.2h-13.8c-4.7,0-7.1-2.6-7.1-7.6v-20.5c0-5,2.5-7.6,7.1-7.6h13.8v5h-13.8
					c-1.7,0-2.4,0.8-2.4,2.6v20.5c0,1.9,0.8,2.7,2.4,2.7h13.8V-197.2L-312.3-197.2z M-326.1-231.8c-4,0-5.9,2-5.9,6.4v20.5
					c0,4.4,1.9,6.4,5.9,6.4h12.6v-2.5h-12.6c-2.4,0-3.7-1.4-3.7-3.9v-20.5c0-2.5,1.3-3.9,3.7-3.9h12.6v-2.5L-326.1-231.8
					L-326.1-231.8z"/>
			</g>
			<g>
				<path class="st3" d="M-303.2-218.4v-3.7h12.4c4.4,0,6.6,2.3,6.6,7v10.3c0,4.7-2.2,7-6.6,7h-7.8c-4.4,0-6.6-2.2-6.6-6.6v-0.9
					c0-4.3,2.2-6.5,6.6-6.5h8.8v3.7h-8.8c-2.1,0-3.1,0.9-3.1,2.8v0.9c0,1.9,1,2.9,3.1,2.9h7.8c2,0,3.1-1.1,3.1-3.3v-10.3
					c0-2.2-1-3.3-3.1-3.3L-303.2-218.4L-303.2-218.4z"/>
				<path class="st3" d="M-290.9-197.2h-7.8c-4.7,0-7.2-2.5-7.2-7.2v-0.9c0-4.7,2.5-7.1,7.2-7.1h9.4v4.9h-9.4
					c-1.7,0-2.4,0.6-2.4,2.2v0.9c0,1.6,0.7,2.2,2.4,2.2h7.8c1.7,0,2.4-0.8,2.4-2.7v-10.3c0-1.8-0.8-2.6-2.4-2.6h-13v-4.9h13
					c4.7,0,7.2,2.6,7.2,7.6v10.3C-283.7-199.8-286.2-197.2-290.9-197.2z M-298.6-211.2c-4.1,0-6,1.9-6,5.9v0.9c0,4.1,1.9,6,6,6h7.8
					c4.1,0,6-2,6-6.4v-10.3c0-4.3-1.9-6.3-5.9-6.3h-11.8v2.5h11.8c2.4,0,3.7,1.4,3.7,3.9v10.3c0,2.5-1.3,3.9-3.7,3.9h-7.8
					c-2.4,0-3.7-1.2-3.7-3.5v-0.9c0-2.2,1.3-3.4,3.7-3.4h8.2v-2.5L-298.6-211.2L-298.6-211.2z"/>
			</g>
			<g>
				<path class="st3" d="M-271.7-197.8h-3.5v-17.3c0-4.6,2.2-7,6.5-7h2.7v3.7h-2.7c-2,0-3.1,1.1-3.1,3.3
					C-271.7-215.1-271.7-197.8-271.7-197.8z"/>
				<path class="st3" d="M-271.1-197.2h-4.7v-17.9c0-5,2.5-7.6,7.1-7.6h3.4v4.9h-3.4c-1.7,0-2.5,0.8-2.5,2.6L-271.1-197.2
					L-271.1-197.2z M-274.6-198.4h2.2v-16.7c0-2.5,1.3-3.9,3.7-3.9h2.1v-2.5h-2.1c-4,0-5.9,2-5.9,6.3L-274.6-198.4L-274.6-198.4z"/>
			</g>
			<g>
				<path class="st3" d="M-242-232.4h3.5v27.5c0,4.7-2.2,7-6.6,7h-7.8c-4.4,0-6.5-2.3-6.5-7v-10.3c0-4.6,2.2-7,6.5-7h8.9v3.7h-8.9
					c-2,0-3.1,1.1-3.1,3.3v10.3c0,2.2,1,3.3,3.1,3.3h7.8c2.1,0,3.1-1.1,3.1-3.3V-232.4z"/>
				<path class="st3" d="M-245.1-197.2h-7.8c-4.7,0-7.2-2.6-7.2-7.6v-10.3c0-5,2.5-7.6,7.2-7.6h9.5v4.9h-9.5c-1.7,0-2.5,0.8-2.5,2.6
					v10.3c0,1.9,0.8,2.7,2.5,2.7h7.8c1.7,0,2.5-0.8,2.5-2.7V-233h4.7v28.2C-237.9-199.8-240.4-197.2-245.1-197.2L-245.1-197.2z
					 M-252.9-221.4c-4,0-5.9,2-5.9,6.3v10.3c0,4.4,1.9,6.4,5.9,6.4h7.8c4.1,0,6-2,6-6.4v-26.9h-2.2v26.9c0,2.5-1.3,3.9-3.7,3.9h-7.8
					c-2.4,0-3.7-1.4-3.7-3.9v-10.3c0-2.5,1.3-3.9,3.7-3.9h8.2v-2.5C-244.7-221.4-252.9-221.4-252.9-221.4z"/>
			</g>
		</g>
	</g>
</g>
<g id="_Слой_1-2_00000027594832230217408780000008108664645915418768_">
	<g>
		<path class="st1" d="M-579-418.6l2.9,2.9l-25.1,25.1l-10.2-10.2l17.8-17.8C-589.5-422.6-583-422.6-579-418.6L-579-418.6z"/>
		<path class="st1" d="M-568.1-407.8l8.3,8.3c4,4,4,10.6,0,14.6l-17.8,17.8l-15.6-15.6L-568.1-407.8L-568.1-407.8z"/>
		<path class="st2" d="M-633.6-372.7l-2.9-2.9l25.1-25.1l10.2,10.2l-17.8,17.8C-623-368.7-629.5-368.7-633.6-372.7L-633.6-372.7z"/>
		<path class="st2" d="M-644.4-383.5l-8.3-8.3c-4-4-4-10.6,0-14.6l17.8-17.8l15.6,15.6L-644.4-383.5z"/>
	</g>
</g>
<g id="_Слой_1-2_00000031925027661797616550000013960223394479882168_">
	<g>
		<path class="st1" d="M-410.7-418.6l2.9,2.9l-25.1,25.1l-10.2-10.2l17.8-17.8C-421.3-422.6-414.7-422.6-410.7-418.6L-410.7-418.6z"
			/>
		<path class="st1" d="M-399.9-407.8l8.3,8.3c4,4,4,10.6,0,14.6l-17.8,17.8l-15.6-15.6L-399.9-407.8L-399.9-407.8z"/>
		<path class="st2" d="M-465.3-372.7l-2.9-2.9l25.1-25.1l10.2,10.2l-17.8,17.8C-454.8-368.7-461.3-368.7-465.3-372.7L-465.3-372.7z"
			/>
		<path class="st2" d="M-476.2-383.5l-8.3-8.3c-4-4-4-10.6,0-14.6l17.8-17.8l15.6,15.6L-476.2-383.5z"/>
	</g>
</g>
<g id="_Слой_1-2_00000108290722719706833140000003817042418537009536_">
	<g>
		<g>
			<path class="st1" d="M152.6-540.5l2.9,2.9l-25.1,25.1l-10.2-10.2l17.8-17.8C142-544.6,148.5-544.6,152.6-540.5L152.6-540.5z"/>
			<path class="st1" d="M163.4-529.7l8.3,8.3c4,4,4,10.6,0,14.6l-17.8,17.8l-15.6-15.6L163.4-529.7L163.4-529.7z"/>
			<path class="st2" d="M97.9-494.6l-2.9-2.9l25.1-25.1l10.2,10.2l-17.8,17.8C108.5-490.6,102-490.6,97.9-494.6L97.9-494.6z"/>
			<path class="st2" d="M87.1-505.4l-8.3-8.3c-4-4-4-10.6,0-14.6l17.8-17.8l15.6,15.6L87.1-505.4z"/>
		</g>
		<g>
			<g>
				<path class="st3" d="M43.8-453.2h10.6L48-470.5l-10.7,29.1h-3.7l12.9-34.6h3.2l13,34.6h-3.8l-3.1-8.2H42.4L43.8-453.2
					L43.8-453.2z"/>
				<path class="st3" d="M63.5-440.7h-5.1l-3.1-8.2H41.4l1.9-5h10.1L48-468.7l-10.3,28h-5.1L46-476.5h4.1L63.5-440.7L63.5-440.7z
					 M59.3-442h2.5l-12.5-33.3h-2.3L34.5-442h2.4L48-472.3l7.2,19.7h-11l-1,2.5h12.9L59.3-442L59.3-442z"/>
			</g>
			<g>
				<path class="st3" d="M85.9-475.9h3.5v27.5c0,4.7-2.2,7-6.6,7H75c-4.3,0-6.5-2.3-6.5-7v-10.3c0-4.6,2.2-7,6.5-7h8.8v3.7H75
					c-2.1,0-3.1,1.1-3.1,3.3v10.3c0,2.2,1,3.3,3.1,3.3h7.8c2.1,0,3.1-1.1,3.1-3.3C85.9-448.3,85.9-475.9,85.9-475.9z"/>
				<path class="st3" d="M82.8-440.7H75c-4.7,0-7.2-2.6-7.2-7.6v-10.3c0-5,2.5-7.6,7.2-7.6h9.5v4.9H75c-1.7,0-2.4,0.8-2.4,2.6v10.3
					c0,1.9,0.8,2.7,2.4,2.7h7.8c1.7,0,2.5-0.8,2.5-2.7v-28.2H90v28.2C90-443.4,87.5-440.7,82.8-440.7L82.8-440.7z M75-465
					c-4,0-5.9,2-5.9,6.3v10.3c0,4.4,1.9,6.4,5.9,6.4h7.8c4.1,0,6-2,6-6.4v-26.9h-2.2v26.9c0,2.5-1.3,3.9-3.7,3.9H75
					c-2.4,0-3.7-1.4-3.7-3.9v-10.3c0-2.5,1.3-3.9,3.7-3.9h8.2v-2.5C83.2-465,75-465,75-465z"/>
			</g>
			<g>
				<path class="st3" d="M113.4-465.6v3.7h-9.1c-2.1,0-3.1,1.1-3.1,3.3s1,3.3,3.1,3.3h4.6c4.4,0,6.6,2.3,6.6,7c0,4.6-2.2,7-6.6,7
					h-10v-3.7h10c2.1,0,3.1-1.1,3.1-3.3s-1-3.3-3.1-3.3h-4.6c-4.4,0-6.6-2.3-6.6-7c0-4.7,2.2-7,6.6-7L113.4-465.6L113.4-465.6z"/>
				<path class="st3" d="M108.9-440.7H98.3v-4.9h10.6c1.7,0,2.5-0.8,2.5-2.7c0-1.8-0.8-2.6-2.5-2.6h-4.6c-4.7,0-7.2-2.6-7.2-7.6
					s2.5-7.6,7.2-7.6h9.7v4.9h-9.7c-1.7,0-2.5,0.8-2.5,2.6c0,1.8,0.8,2.7,2.5,2.7h4.6c4.7,0,7.2,2.6,7.2,7.6
					S113.6-440.7,108.9-440.7z M99.5-442h9.4c4.1,0,6-2,6-6.4s-1.9-6.3-6-6.3h-4.6c-2.4,0-3.7-1.4-3.7-3.9s1.3-3.9,3.7-3.9h8.4v-2.5
					h-8.4c-4.1,0-6,2-6,6.3s1.9,6.4,6,6.4h4.6c2.4,0,3.7,1.4,3.7,3.9s-1.3,3.9-3.7,3.9h-9.4V-442L99.5-442z"/>
			</g>
			<g>
				<path class="st3" d="M142.8-445v3.7h-13.2c-4.3,0-6.5-2.3-6.5-7v-20.5c0-4.7,2.2-7,6.5-7h13.2v3.8h-13.2c-2,0-3.1,1.1-3.1,3.3
					v20.5c0,2.2,1,3.3,3.1,3.3L142.8-445L142.8-445z"/>
				<path class="st3" d="M143.4-440.7h-13.8c-4.7,0-7.1-2.6-7.1-7.6v-20.5c0-5,2.5-7.6,7.1-7.6h13.8v5h-13.8c-1.7,0-2.4,0.8-2.4,2.6
					v20.5c0,1.9,0.8,2.7,2.4,2.7h13.8V-440.7z M129.6-475.3c-4,0-5.9,2-5.9,6.4v20.5c0,4.4,1.9,6.4,5.9,6.4h12.6v-2.5h-12.6
					c-2.4,0-3.7-1.4-3.7-3.9v-20.5c0-2.5,1.3-3.9,3.7-3.9h12.6v-2.5H129.6z"/>
			</g>
			<g>
				<path class="st3" d="M152.5-461.9v-3.7h12.4c4.4,0,6.6,2.3,6.6,7v10.3c0,4.7-2.2,7-6.6,7h-7.8c-4.4,0-6.6-2.2-6.6-6.6v-0.9
					c0-4.3,2.2-6.5,6.6-6.5h8.8v3.7h-8.8c-2.1,0-3.1,0.9-3.1,2.8v0.9c0,1.9,1,2.9,3.1,2.9h7.8c2.1,0,3.1-1.1,3.1-3.3v-10.3
					c0-2.2-1-3.3-3.1-3.3L152.5-461.9L152.5-461.9z"/>
				<path class="st3" d="M164.9-440.7h-7.8c-4.7,0-7.2-2.5-7.2-7.2v-0.9c0-4.7,2.5-7.1,7.2-7.1h9.4v4.9h-9.4c-1.7,0-2.4,0.6-2.4,2.2
					v0.9c0,1.6,0.7,2.2,2.4,2.2h7.8c1.7,0,2.4-0.8,2.4-2.7v-10.3c0-1.8-0.8-2.6-2.4-2.6h-13v-4.9h13c4.7,0,7.2,2.6,7.2,7.6v10.3
					C172.1-443.4,169.6-440.7,164.9-440.7z M157.1-454.7c-4.1,0-5.9,1.9-5.9,5.9v0.9c0,4.1,1.9,6,5.9,6h7.8c4.1,0,5.9-2,5.9-6.4
					v-10.3c0-4.3-1.9-6.3-5.9-6.3h-11.8v2.5h11.8c2.4,0,3.7,1.4,3.7,3.9v10.3c0,2.5-1.3,3.9-3.7,3.9h-7.8c-2.4,0-3.7-1.2-3.7-3.5
					v-0.9c0-2.2,1.3-3.4,3.7-3.4h8.2v-2.5L157.1-454.7L157.1-454.7z"/>
			</g>
			<g>
				<path class="st3" d="M184-441.3h-3.4v-17.3c0-4.6,2.2-7,6.5-7h2.7v3.7h-2.7c-2.1,0-3.1,1.1-3.1,3.3V-441.3z"/>
				<path class="st3" d="M184.6-440.7h-4.7v-17.9c0-5,2.5-7.6,7.1-7.6h3.4v4.9h-3.4c-1.7,0-2.4,0.8-2.4,2.6L184.6-440.7L184.6-440.7
					z M181.2-442h2.2v-16.6c0-2.5,1.3-3.9,3.7-3.9h2.1v-2.5h-2.1c-4,0-5.9,2-5.9,6.3L181.2-442L181.2-442z"/>
			</g>
			<g>
				<path class="st3" d="M213.7-475.9h3.5v27.5c0,4.7-2.2,7-6.6,7h-7.8c-4.4,0-6.5-2.3-6.5-7v-10.3c0-4.6,2.2-7,6.5-7h8.9v3.7h-8.9
					c-2.1,0-3.1,1.1-3.1,3.3v10.3c0,2.2,1,3.3,3.1,3.3h7.8c2.1,0,3.1-1.1,3.1-3.3C213.7-448.3,213.7-475.9,213.7-475.9z"/>
				<path class="st3" d="M210.6-440.7h-7.8c-4.7,0-7.1-2.6-7.1-7.6v-10.3c0-5,2.5-7.6,7.1-7.6h9.5v4.9h-9.5c-1.7,0-2.4,0.8-2.4,2.6
					v10.3c0,1.9,0.8,2.7,2.4,2.7h7.8c1.7,0,2.5-0.8,2.5-2.7v-28.2h4.7v28.2C217.8-443.4,215.3-440.7,210.6-440.7L210.6-440.7z
					 M202.8-465c-4,0-5.9,2-5.9,6.3v10.3c0,4.4,1.9,6.4,5.9,6.4h7.8c4.1,0,6-2,6-6.4v-26.9h-2.2v26.9c0,2.5-1.3,3.9-3.7,3.9h-7.8
					c-2.4,0-3.7-1.4-3.7-3.9v-10.3c0-2.5,1.3-3.9,3.7-3.9h8.2v-2.5H202.8z"/>
			</g>
		</g>
	</g>
</g>
<g id="_Слой_1-2_00000099635074791023451440000004895956019069012412_">
	<g>
		<g>
			<path class="st1" d="M-128.4-540.5l2.9,2.9l-25.1,25.1l-10.2-10.2l17.8-17.8C-138.9-544.6-132.4-544.6-128.4-540.5L-128.4-540.5z
				"/>
			<path class="st1" d="M-117.6-529.7l8.3,8.3c4,4,4,10.6,0,14.6l-17.8,17.8l-15.6-15.6L-117.6-529.7L-117.6-529.7z"/>
			<path class="st2" d="M-183-494.6l-2.9-2.9l25.1-25.1l10.2,10.2l-17.8,17.8C-172.4-490.6-179-490.6-183-494.6L-183-494.6z"/>
			<path class="st2" d="M-193.8-505.4l-8.3-8.3c-4-4-4-10.6,0-14.6l17.8-17.8l15.6,15.6L-193.8-505.4z"/>
		</g>
		<g>
			<g>
				<path class="st4" d="M-237.2-453.2h10.6l-6.3-17.2l-10.7,29.1h-3.7l12.9-34.6h3.2l13,34.6h-3.8l-3.1-8.2h-13.4L-237.2-453.2
					L-237.2-453.2z"/>
				<path class="st4" d="M-217.4-440.7h-5.1l-3.1-8.2h-13.9l1.9-5h10.1l-5.4-14.8l-10.3,28h-5.1l13.3-35.8h4.1L-217.4-440.7
					L-217.4-440.7z M-221.7-442h2.5l-12.5-33.3h-2.3l-12.4,33.3h2.4l11.2-30.3l7.2,19.7h-11l-1,2.5h12.9L-221.7-442L-221.7-442z"/>
			</g>
			<g>
				<path class="st4" d="M-195.1-475.9h3.5v27.5c0,4.7-2.2,7-6.6,7h-7.8c-4.3,0-6.5-2.3-6.5-7v-10.3c0-4.6,2.2-7,6.5-7h8.9v3.7h-8.9
					c-2.1,0-3.1,1.1-3.1,3.3v10.3c0,2.2,1,3.3,3.1,3.3h7.8c2.1,0,3.1-1.1,3.1-3.3C-195.1-448.3-195.1-475.9-195.1-475.9z"/>
				<path class="st4" d="M-198.2-440.7h-7.8c-4.7,0-7.1-2.6-7.1-7.6v-10.3c0-5,2.5-7.6,7.1-7.6h9.5v4.9h-9.5c-1.7,0-2.4,0.8-2.4,2.6
					v10.3c0,1.9,0.8,2.7,2.4,2.7h7.8c1.7,0,2.5-0.8,2.5-2.7v-28.2h4.7v28.2C-191-443.4-193.5-440.7-198.2-440.7L-198.2-440.7z
					 M-206-465c-4,0-5.9,2-5.9,6.3v10.3c0,4.4,1.9,6.4,5.9,6.4h7.8c4.1,0,6-2,6-6.4v-26.9h-2.2v26.9c0,2.5-1.3,3.9-3.7,3.9h-7.8
					c-2.4,0-3.7-1.4-3.7-3.9v-10.3c0-2.5,1.3-3.9,3.7-3.9h8.2v-2.5C-197.7-465-206-465-206-465z"/>
			</g>
			<g>
				<path class="st4" d="M-167.6-465.6v3.7h-9.1c-2.1,0-3.1,1.1-3.1,3.3s1,3.3,3.1,3.3h4.6c4.4,0,6.6,2.3,6.6,7c0,4.6-2.2,7-6.6,7
					h-10v-3.7h10c2.1,0,3.1-1.1,3.1-3.3s-1-3.3-3.1-3.3h-4.6c-4.4,0-6.6-2.3-6.6-7c0-4.7,2.2-7,6.6-7L-167.6-465.6L-167.6-465.6z"/>
				<path class="st4" d="M-172.1-440.7h-10.6v-4.9h10.6c1.7,0,2.5-0.8,2.5-2.7c0-1.8-0.8-2.6-2.5-2.6h-4.6c-4.7,0-7.2-2.6-7.2-7.6
					s2.5-7.6,7.2-7.6h9.7v4.9h-9.7c-1.7,0-2.5,0.8-2.5,2.6c0,1.8,0.8,2.7,2.5,2.7h4.6c4.7,0,7.2,2.6,7.2,7.6
					S-167.3-440.7-172.1-440.7z M-181.5-442h9.4c4.1,0,6-2,6-6.4s-1.9-6.3-6-6.3h-4.6c-2.4,0-3.7-1.4-3.7-3.9s1.3-3.9,3.7-3.9h8.4
					v-2.5h-8.4c-4.1,0-6,2-6,6.3s1.9,6.4,6,6.4h4.6c2.4,0,3.7,1.4,3.7,3.9s-1.3,3.9-3.7,3.9h-9.4V-442L-181.5-442z"/>
			</g>
			<g>
				<path class="st4" d="M-138.1-445v3.7h-13.2c-4.4,0-6.5-2.3-6.5-7v-20.5c0-4.7,2.2-7,6.5-7h13.2v3.8h-13.2
					c-2.1,0-3.1,1.1-3.1,3.3v20.5c0,2.2,1,3.3,3.1,3.3L-138.1-445L-138.1-445z"/>
				<path class="st4" d="M-137.5-440.7h-13.8c-4.7,0-7.2-2.6-7.2-7.6v-20.5c0-5,2.5-7.6,7.2-7.6h13.8v5h-13.8
					c-1.7,0-2.4,0.8-2.4,2.6v20.5c0,1.9,0.8,2.7,2.4,2.7h13.8V-440.7z M-151.3-475.3c-4,0-5.9,2-5.9,6.4v20.5c0,4.4,1.9,6.4,5.9,6.4
					h12.6v-2.5h-12.6c-2.4,0-3.7-1.4-3.7-3.9v-20.5c0-2.5,1.3-3.9,3.7-3.9h12.6v-2.5H-151.3z"/>
			</g>
			<g>
				<path class="st4" d="M-128.5-461.9v-3.7h12.4c4.4,0,6.6,2.3,6.6,7v10.3c0,4.7-2.2,7-6.6,7h-7.8c-4.4,0-6.6-2.2-6.6-6.6v-0.9
					c0-4.3,2.2-6.5,6.6-6.5h8.8v3.7h-8.8c-2.1,0-3.1,0.9-3.1,2.8v0.9c0,1.9,1,2.9,3.1,2.9h7.8c2.1,0,3.1-1.1,3.1-3.3v-10.3
					c0-2.2-1-3.3-3.1-3.3L-128.5-461.9L-128.5-461.9z"/>
				<path class="st4" d="M-116.1-440.7h-7.8c-4.7,0-7.2-2.5-7.2-7.2v-0.9c0-4.7,2.5-7.1,7.2-7.1h9.4v4.9h-9.4
					c-1.7,0-2.4,0.6-2.4,2.2v0.9c0,1.6,0.7,2.2,2.4,2.2h7.8c1.7,0,2.4-0.8,2.4-2.7v-10.3c0-1.8-0.8-2.6-2.4-2.6h-13v-4.9h13
					c4.7,0,7.2,2.6,7.2,7.6v10.3C-108.9-443.4-111.4-440.7-116.1-440.7z M-123.8-454.7c-4.1,0-5.9,1.9-5.9,5.9v0.9
					c0,4.1,1.9,6,5.9,6h7.8c4.1,0,5.9-2,5.9-6.4v-10.3c0-4.3-1.9-6.3-5.9-6.3h-11.8v2.5h11.8c2.4,0,3.7,1.4,3.7,3.9v10.3
					c0,2.5-1.3,3.9-3.7,3.9h-7.8c-2.4,0-3.7-1.2-3.7-3.5v-0.9c0-2.2,1.3-3.4,3.7-3.4h8.2v-2.5L-123.8-454.7L-123.8-454.7z"/>
			</g>
			<g>
				<path class="st4" d="M-97-441.3h-3.4v-17.3c0-4.6,2.2-7,6.5-7h2.7v3.7h-2.7c-2.1,0-3.1,1.1-3.1,3.3V-441.3z"/>
				<path class="st4" d="M-96.3-440.7h-4.7v-17.9c0-5,2.5-7.6,7.1-7.6h3.4v4.9h-3.4c-1.7,0-2.4,0.8-2.4,2.6L-96.3-440.7L-96.3-440.7
					z M-99.8-442h2.2v-16.6c0-2.5,1.3-3.9,3.7-3.9h2.1v-2.5h-2.1c-4,0-5.9,2-5.9,6.3L-99.8-442L-99.8-442z"/>
			</g>
			<g>
				<path class="st4" d="M-67.2-475.9h3.5v27.5c0,4.7-2.2,7-6.6,7h-7.8c-4.4,0-6.5-2.3-6.5-7v-10.3c0-4.6,2.2-7,6.5-7h8.9v3.7h-8.9
					c-2.1,0-3.1,1.1-3.1,3.3v10.3c0,2.2,1,3.3,3.1,3.3h7.8c2.1,0,3.1-1.1,3.1-3.3C-67.2-448.3-67.2-475.9-67.2-475.9z"/>
				<path class="st4" d="M-70.4-440.7h-7.8c-4.7,0-7.1-2.6-7.1-7.6v-10.3c0-5,2.5-7.6,7.1-7.6h9.5v4.9h-9.5c-1.7,0-2.4,0.8-2.4,2.6
					v10.3c0,1.9,0.8,2.7,2.4,2.7h7.8c1.7,0,2.5-0.8,2.5-2.7v-28.2h4.7v28.2C-63.1-443.4-65.6-440.7-70.4-440.7L-70.4-440.7z
					 M-78.1-465c-4,0-5.9,2-5.9,6.3v10.3c0,4.4,1.9,6.4,5.9,6.4h7.8c4.1,0,6-2,6-6.4v-26.9h-2.2v26.9c0,2.5-1.3,3.9-3.7,3.9h-7.8
					c-2.4,0-3.7-1.4-3.7-3.9v-10.3c0-2.5,1.3-3.9,3.7-3.9h8.2v-2.5H-78.1z"/>
			</g>
		</g>
	</g>
</g>
<g id="_Слой_1-2_00000162333342150001305720000009671623127499367080_">
	<g>
		<g>
			<path class="st1" d="M38.9-394.4l2.9,2.9l-25.1,25.1L6.5-376.5l17.8-17.8C28.3-398.4,34.9-398.4,38.9-394.4L38.9-394.4z"/>
			<path class="st1" d="M49.7-383.5l8.3,8.3c4,4,4,10.6,0,14.6l-17.8,17.8l-15.6-15.6L49.7-383.5L49.7-383.5z"/>
			<path class="st2" d="M-15.7-348.5l-2.9-2.9l25.1-25.1l10.2,10.2l-17.8,17.8C-5.2-344.4-11.7-344.4-15.7-348.5L-15.7-348.5z"/>
			<path class="st2" d="M-26.6-359.3l-8.3-8.3c-4-4-4-10.6,0-14.6L-17-400l15.6,15.6L-26.6-359.3z"/>
		</g>
		<g>
			<g>
				<path class="st3" d="M-69.9-307.1h10.6l-6.3-17.2l-10.7,29.1h-3.7l12.9-34.5h3.2l13,34.5h-3.8l-3.1-8.2h-13.4L-69.9-307.1
					L-69.9-307.1z"/>
				<path class="st3" d="M-50.1-294.6h-5.1l-3.1-8.2h-13.9l1.9-4.9h10.1l-5.4-14.8l-10.3,27.9H-81l13.3-35.8h4.1L-50.1-294.6
					L-50.1-294.6z M-54.4-295.8h2.5l-12.5-33.3h-2.3l-12.4,33.3h2.4l11.2-30.3l7.2,19.7h-11l-1,2.5h12.9L-54.4-295.8L-54.4-295.8z"
					/>
			</g>
			<g>
				<path class="st3" d="M-27.8-329.7h3.5v27.5c0,4.7-2.2,7-6.6,7h-7.8c-4.3,0-6.5-2.3-6.5-7v-10.3c0-4.6,2.2-7,6.5-7h8.8v3.7h-8.8
					c-2,0-3.1,1.1-3.1,3.3v10.3c0,2.2,1,3.3,3.1,3.3h7.8c2.1,0,3.1-1.1,3.1-3.3C-27.8-302.2-27.8-329.7-27.8-329.7z"/>
				<path class="st3" d="M-30.9-294.6h-7.8c-4.7,0-7.2-2.6-7.2-7.6v-10.3c0-5,2.5-7.6,7.2-7.6h9.5v5h-9.5c-1.7,0-2.5,0.8-2.5,2.6
					v10.3c0,1.9,0.8,2.7,2.5,2.7h7.8c1.7,0,2.5-0.8,2.5-2.7v-28.2h4.7v28.2C-23.7-297.2-26.2-294.6-30.9-294.6L-30.9-294.6z
					 M-38.7-318.8c-4,0-5.9,2-5.9,6.3v10.3c0,4.4,1.9,6.4,5.9,6.4h7.8c4.1,0,6-2,6-6.4v-26.9h-2.2v26.9c0,2.5-1.3,3.9-3.7,3.9h-7.8
					c-2.4,0-3.7-1.4-3.7-3.9v-10.3c0-2.5,1.3-3.9,3.7-3.9h8.2v-2.5C-30.5-318.8-38.7-318.8-38.7-318.8z"/>
			</g>
			<g>
				<path class="st3" d="M-0.3-319.4v3.7h-9.1c-2.1,0-3.1,1.1-3.1,3.3c0,2.2,1,3.3,3.1,3.3h4.6c4.4,0,6.6,2.3,6.6,7
					c0,4.6-2.2,7-6.6,7h-10v-3.7h10c2.1,0,3.1-1.1,3.1-3.3c0-2.2-1-3.3-3.1-3.3h-4.6c-4.4,0-6.6-2.3-6.6-7s2.2-7,6.6-7L-0.3-319.4
					L-0.3-319.4z"/>
				<path class="st3" d="M-4.8-294.6h-10.6v-5h10.6c1.7,0,2.5-0.8,2.5-2.7s-0.8-2.6-2.5-2.6h-4.6c-4.7,0-7.2-2.6-7.2-7.6
					c0-5,2.5-7.6,7.2-7.6h9.7v5h-9.7c-1.7,0-2.5,0.8-2.5,2.6c0,1.8,0.8,2.7,2.5,2.7h4.6c4.7,0,7.2,2.6,7.2,7.6S-0.1-294.6-4.8-294.6
					z M-14.2-295.8h9.4c4.1,0,6-2,6-6.4c0-4.4-1.9-6.3-6-6.3h-4.6c-2.4,0-3.7-1.4-3.7-3.9s1.3-3.9,3.7-3.9h8.4v-2.5h-8.4
					c-4.1,0-6,2-6,6.3s1.9,6.4,6,6.4h4.6c2.4,0,3.7,1.4,3.7,3.9s-1.3,3.9-3.7,3.9h-9.4V-295.8L-14.2-295.8z"/>
			</g>
			<g>
				<path class="st3" d="M29.1-298.9v3.7H16c-4.3,0-6.5-2.3-6.5-7v-20.5c0-4.7,2.2-7,6.5-7h13.2v3.8H16c-2.1,0-3.1,1.1-3.1,3.3v20.5
					c0,2.2,1,3.3,3.1,3.3L29.1-298.9L29.1-298.9z"/>
				<path class="st3" d="M29.8-294.6H16c-4.7,0-7.2-2.6-7.2-7.6v-20.5c0-5,2.5-7.6,7.2-7.6h13.8v5H16c-1.7,0-2.4,0.8-2.4,2.6v20.5
					c0,1.9,0.8,2.7,2.4,2.7h13.8V-294.6z M16-329.1c-4,0-5.9,2-5.9,6.4v20.5c0,4.4,1.9,6.4,5.9,6.4h12.6v-2.5H16
					c-2.4,0-3.7-1.4-3.7-3.9v-20.5c0-2.5,1.3-3.9,3.7-3.9h12.6v-2.5H16z"/>
			</g>
			<g>
				<path class="st3" d="M38.8-315.7v-3.7h12.4c4.4,0,6.6,2.3,6.6,7v10.3c0,4.7-2.2,7-6.6,7h-7.8c-4.4,0-6.6-2.2-6.6-6.6v-0.9
					c0-4.3,2.2-6.5,6.6-6.5h8.8v3.7h-8.8c-2.1,0-3.1,0.9-3.1,2.8v0.9c0,1.9,1,2.9,3.1,2.9h7.8c2.1,0,3.1-1.1,3.1-3.3v-10.3
					c0-2.2-1-3.3-3.1-3.3L38.8-315.7L38.8-315.7z"/>
				<path class="st3" d="M51.2-294.6h-7.8c-4.7,0-7.2-2.5-7.2-7.2v-0.9c0-4.6,2.5-7.1,7.2-7.1h9.4v5h-9.4c-1.7,0-2.4,0.6-2.4,2.1
					v0.9c0,1.6,0.7,2.2,2.4,2.2h7.8c1.7,0,2.4-0.8,2.4-2.7v-10.3c0-1.8-0.8-2.6-2.4-2.6h-13v-5h13c4.7,0,7.2,2.6,7.2,7.6v10.3
					C58.4-297.2,55.9-294.6,51.2-294.6z M43.4-308.5c-4.1,0-5.9,1.9-5.9,5.9v0.9c0,4.1,1.9,5.9,5.9,5.9h7.8c4.1,0,5.9-2,5.9-6.4
					v-10.3c0-4.3-1.9-6.3-5.9-6.3H39.4v2.5h11.8c2.4,0,3.7,1.4,3.7,3.9v10.3c0,2.5-1.3,3.9-3.7,3.9h-7.8c-2.4,0-3.7-1.2-3.7-3.5
					v-0.9c0-2.2,1.3-3.4,3.7-3.4h8.2v-2.5L43.4-308.5L43.4-308.5z"/>
			</g>
			<g>
				<path class="st3" d="M70.3-295.2h-3.4v-17.3c0-4.6,2.2-7,6.5-7h2.7v3.7h-2.7c-2.1,0-3.1,1.1-3.1,3.3V-295.2z"/>
				<path class="st3" d="M70.9-294.6h-4.7v-17.9c0-5,2.5-7.6,7.1-7.6h3.4v5h-3.4c-1.7,0-2.4,0.8-2.4,2.6L70.9-294.6L70.9-294.6z
					 M67.5-295.8h2.2v-16.6c0-2.5,1.3-3.9,3.7-3.9h2.1v-2.5h-2.1c-4,0-5.9,2-5.9,6.3L67.5-295.8L67.5-295.8z"/>
			</g>
			<g>
				<path class="st3" d="M100-329.7h3.5v27.5c0,4.7-2.2,7-6.6,7h-7.8c-4.4,0-6.5-2.3-6.5-7v-10.3c0-4.6,2.2-7,6.5-7H98v3.7h-8.9
					c-2.1,0-3.1,1.1-3.1,3.3v10.3c0,2.2,1,3.3,3.1,3.3h7.8c2.1,0,3.1-1.1,3.1-3.3C100-302.2,100-329.7,100-329.7z"/>
				<path class="st3" d="M96.9-294.6h-7.8c-4.7,0-7.1-2.6-7.1-7.6v-10.3c0-5,2.5-7.6,7.1-7.6h9.5v5h-9.5c-1.7,0-2.4,0.8-2.4,2.6
					v10.3c0,1.9,0.8,2.7,2.4,2.7h7.8c1.7,0,2.5-0.8,2.5-2.7v-28.2h4.7v28.2C104.2-297.2,101.7-294.6,96.9-294.6L96.9-294.6z
					 M89.2-318.8c-4,0-5.9,2-5.9,6.3v10.3c0,4.4,1.9,6.4,5.9,6.4h7.8c4.1,0,6-2,6-6.4v-26.9h-2.2v26.9c0,2.5-1.3,3.9-3.7,3.9h-7.8
					c-2.4,0-3.7-1.4-3.7-3.9v-10.3c0-2.5,1.3-3.9,3.7-3.9h8.2v-2.5H89.2z"/>
			</g>
		</g>
	</g>
</g>
</svg>
