<svg width="547" height="80" viewBox="0 0 547 80" fill="none" xmlns="http://www.w3.org/2000/svg">
<path d="M257.415 56.4305C256.192 60.9686 251.356 64.7075 246.663 64.7075H215.259C210.566 64.7075 207.721 60.9971 208.944 56.4305L220.465 13.3046C221.688 8.76649 226.523 5.02758 231.217 5.02758H262.62C267.314 5.02758 270.158 8.73795 268.935 13.3046L257.415 56.4305Z" fill="#16C7B0"/>
<path d="M0 6.14072H33.44V11.8207H6.96V32.0607H27.6V37.7407H6.96V63.3407H0V6.14072Z" fill="black"/>
<path d="M40.8653 21.5007H47.5053V63.3407H40.8653V21.5007ZM44.0653 12.7807C42.8386 12.7807 41.7986 12.354 40.9453 11.5007C40.092 10.6474 39.6653 9.60738 39.6653 8.38072C39.6653 7.15405 40.092 6.11405 40.9453 5.26072C41.7986 4.40738 42.8386 3.98072 44.0653 3.98072C45.292 3.98072 46.332 4.40738 47.1853 5.26072C48.0386 6.11405 48.4653 7.15405 48.4653 8.38072C48.4653 9.60738 48.0386 10.6474 47.1853 11.5007C46.332 12.354 45.292 12.7807 44.0653 12.7807Z" fill="black"/>
<path d="M56.4837 21.5007H63.1237V28.1407C64.0837 26.1674 65.6837 24.4607 67.9237 23.0207C70.217 21.5274 73.097 20.7807 76.5637 20.7807C78.697 20.7807 80.6703 21.1007 82.4837 21.7407C84.297 22.3274 85.8437 23.314 87.1237 24.7007C88.457 26.034 89.4703 27.7674 90.1637 29.9007C90.9103 32.0341 91.2837 34.6207 91.2837 37.6607V63.3407H84.6437V37.1807C84.6437 33.5007 83.8437 30.8074 82.2437 29.1007C80.6437 27.3941 78.1637 26.5407 74.8037 26.5407C73.257 26.5407 71.7637 26.7807 70.3237 27.2607C68.937 27.7407 67.7103 28.4607 66.6437 29.4207C65.577 30.3807 64.7237 31.5807 64.0837 33.0207C63.4437 34.4607 63.1237 36.1141 63.1237 37.9807V63.3407H56.4837V21.5007Z" fill="black"/>
<path d="M118.676 64.0607C115.689 64.0607 112.969 63.554 110.516 62.5407C108.062 61.5273 105.929 60.114 104.116 58.3007C102.302 56.434 100.889 54.1941 99.8755 51.5807C98.9155 48.9674 98.4355 46.0607 98.4355 42.8607V42.2207C98.4355 39.0741 98.9155 36.1941 99.8755 33.5807C100.836 30.9141 102.169 28.6474 103.876 26.7807C105.636 24.8607 107.716 23.394 110.116 22.3807C112.516 21.314 115.156 20.7807 118.036 20.7807C120.436 20.7807 122.756 21.1807 124.996 21.9807C127.289 22.7274 129.316 23.9274 131.076 25.5807C132.836 27.234 134.222 29.3941 135.236 32.0607C136.302 34.6741 136.836 37.8474 136.836 41.5807V43.7407H105.316C105.476 48.5407 106.676 52.2207 108.916 54.7807C111.156 57.2874 114.436 58.5407 118.756 58.5407C125.316 58.5407 129.022 56.1141 129.876 51.2607H136.516C135.769 55.4741 133.796 58.674 130.596 60.8607C127.396 62.994 123.422 64.0607 118.676 64.0607ZM130.036 38.3807C129.716 34.0607 128.489 30.9674 126.356 29.1007C124.276 27.2341 121.502 26.3007 118.036 26.3007C114.622 26.3007 111.822 27.3941 109.636 29.5807C107.502 31.7141 106.142 34.6474 105.556 38.3807H130.036Z" fill="black"/>
<path d="M144.473 21.5007H151.113V29.0207C151.753 27.8474 152.473 26.7807 153.273 25.8207C154.126 24.8074 155.086 23.954 156.153 23.2607C157.219 22.514 158.473 21.9274 159.913 21.5007C161.353 21.074 163.006 20.834 164.873 20.7807V27.0207C162.793 27.1274 160.899 27.394 159.193 27.8207C157.486 28.2474 156.019 28.9674 154.793 29.9807C153.619 30.9941 152.713 32.3541 152.073 34.0607C151.433 35.7141 151.113 37.8207 151.113 40.3807V63.3407H144.473V21.5007Z" fill="black"/>
<path d="M184.77 59.0207L168.37 21.5007H175.49L188.29 51.5007L199.89 21.5007H206.69L183.57 77.9007H176.85L184.77 59.0207Z" fill="black"/>
<path d="M278.387 6.14072H288.067L305.747 50.7007L322.867 6.14072H332.467V63.3407H325.507V15.1807L306.547 63.3407H304.387L284.787 15.1807V63.3407H278.387V6.14072Z" fill="black"/>
<path d="M354.466 64.0607C352.546 64.0607 350.732 63.8207 349.026 63.3407C347.319 62.8607 345.826 62.114 344.546 61.1007C343.319 60.0873 342.332 58.8073 341.586 57.2607C340.892 55.714 340.546 53.8741 340.546 51.7407C340.546 49.3407 341.132 47.3141 342.306 45.6607C343.479 44.0074 345.026 42.6741 346.946 41.6607C348.919 40.6474 351.159 39.9274 353.666 39.5007C356.226 39.0207 358.839 38.7807 361.506 38.7807H367.506V35.7407C367.506 32.3807 366.812 29.9807 365.426 28.5407C364.039 27.0474 361.746 26.3007 358.546 26.3007C352.786 26.3007 349.586 28.8074 348.946 33.8207H342.306C342.519 31.4207 343.106 29.394 344.066 27.7407C345.079 26.0874 346.332 24.754 347.826 23.7407C349.372 22.674 351.079 21.9274 352.946 21.5007C354.866 21.0207 356.839 20.7807 358.866 20.7807C360.839 20.7807 362.759 21.0207 364.626 21.5007C366.492 21.9274 368.119 22.7274 369.506 23.9007C370.892 25.0207 372.012 26.5407 372.866 28.4607C373.719 30.3807 374.146 32.8074 374.146 35.7407V63.3407H367.506V58.0607C365.959 60.034 364.172 61.5273 362.146 62.5407C360.119 63.554 357.559 64.0607 354.466 64.0607ZM355.106 58.7807C356.866 58.7807 358.492 58.5673 359.986 58.1407C361.532 57.6607 362.839 56.994 363.906 56.1407C365.026 55.2873 365.906 54.2474 366.546 53.0207C367.186 51.7407 367.506 50.3007 367.506 48.7007V43.5007H361.746C359.666 43.5007 357.719 43.6607 355.906 43.9807C354.146 44.2474 352.599 44.7007 351.266 45.3407C349.986 45.9807 348.972 46.8341 348.226 47.9007C347.532 48.9141 347.186 50.1941 347.186 51.7407C347.186 53.9274 347.772 55.6607 348.946 56.9407C350.119 58.1673 352.172 58.7807 355.106 58.7807Z" fill="black"/>
<path d="M382.646 21.5007H389.286V29.0207C389.926 27.8473 390.646 26.7807 391.446 25.8207C392.299 24.8073 393.259 23.954 394.326 23.2607C395.393 22.514 396.646 21.9273 398.086 21.5007C399.526 21.074 401.179 20.834 403.046 20.7807V27.0207C400.966 27.1273 399.073 27.394 397.366 27.8207C395.659 28.2473 394.193 28.9673 392.966 29.9807C391.793 30.994 390.886 32.354 390.246 34.0607C389.606 35.714 389.286 37.8207 389.286 40.3807V63.3407H382.646V21.5007Z" fill="black"/>
<path d="M410.462 1.50067H417.102V40.7807L434.461 21.5007H442.221L424.302 40.9407L443.741 63.3407H435.661L417.102 41.6607V63.3407H410.462V1.50067Z" fill="black"/>
<path d="M464.749 64.0607C461.762 64.0607 459.042 63.554 456.589 62.5407C454.136 61.5273 452.002 60.114 450.189 58.3007C448.376 56.434 446.962 54.194 445.949 51.5807C444.989 48.9673 444.509 46.0607 444.509 42.8607V42.2207C444.509 39.074 444.989 36.194 445.949 33.5807C446.909 30.914 448.242 28.6473 449.949 26.7807C451.709 24.8607 453.789 23.394 456.189 22.3807C458.589 21.314 461.229 20.7807 464.109 20.7807C466.509 20.7807 468.829 21.1807 471.069 21.9807C473.362 22.7273 475.389 23.9273 477.149 25.5807C478.909 27.234 480.296 29.394 481.309 32.0607C482.376 34.674 482.909 37.8473 482.909 41.5807V43.7407H451.389C451.549 48.5407 452.749 52.2207 454.989 54.7807C457.229 57.2873 460.509 58.5407 464.829 58.5407C471.389 58.5407 475.096 56.114 475.949 51.2607H482.589C481.842 55.474 479.869 58.674 476.669 60.8607C473.469 62.994 469.496 64.0607 464.749 64.0607ZM476.109 38.3807C475.789 34.0607 474.562 30.9673 472.429 29.1007C470.349 27.234 467.576 26.3007 464.109 26.3007C460.696 26.3007 457.896 27.394 455.709 29.5807C453.576 31.714 452.216 34.6473 451.629 38.3807H476.109Z" fill="black"/>
<path d="M503.812 63.9007C499.972 63.9007 497.119 62.8873 495.252 60.8607C493.439 58.834 492.532 56.1673 492.532 52.8607V27.1007H486.532V21.5007H492.532V11.9807H499.172V21.5007H508.932V27.1007H499.172V52.2207C499.172 56.274 500.906 58.3007 504.372 58.3007C505.439 58.3007 506.372 58.2207 507.172 58.0607C507.972 57.9007 508.746 57.6873 509.492 57.4207V63.0207C508.799 63.2873 508.026 63.5007 507.172 63.6607C506.319 63.8207 505.199 63.9007 503.812 63.9007Z" fill="black"/>
<path d="M530.227 64.0607C525.214 64.0607 521.267 62.8873 518.387 60.5407C515.561 58.1407 514.041 54.7807 513.827 50.4607H520.307C520.574 52.9673 521.427 54.9407 522.867 56.3807C524.361 57.8207 526.787 58.5407 530.147 58.5407C533.347 58.5407 535.667 58.0073 537.107 56.9407C538.547 55.8207 539.267 54.1407 539.267 51.9007C539.267 49.714 538.441 48.1407 536.787 47.1807C535.187 46.2207 532.761 45.4473 529.507 44.8607C526.787 44.3807 524.494 43.8207 522.627 43.1807C520.761 42.4873 519.267 41.6607 518.147 40.7007C517.027 39.7407 516.201 38.594 515.667 37.2607C515.187 35.9273 514.947 34.354 514.947 32.5407C514.947 30.6207 515.374 28.9407 516.227 27.5007C517.081 26.0073 518.174 24.7807 519.507 23.8207C520.894 22.8073 522.414 22.0607 524.067 21.5807C525.774 21.0473 527.454 20.7807 529.107 20.7807C530.974 20.7807 532.761 20.994 534.467 21.4207C536.174 21.794 537.694 22.4607 539.027 23.4207C540.414 24.3807 541.561 25.634 542.467 27.1807C543.374 28.7273 543.961 30.6207 544.227 32.8607H537.827C537.347 30.5673 536.414 28.914 535.027 27.9007C533.694 26.834 531.694 26.3007 529.027 26.3007C526.627 26.3007 524.707 26.8607 523.267 27.9807C521.827 29.0473 521.107 30.4873 521.107 32.3007C521.107 33.2607 521.241 34.0873 521.507 34.7807C521.827 35.4207 522.361 36.0073 523.107 36.5407C523.854 37.0207 524.841 37.474 526.067 37.9007C527.347 38.274 528.947 38.6207 530.867 38.9407C533.001 39.3673 534.974 39.8473 536.787 40.3807C538.601 40.8607 540.147 41.554 541.427 42.4607C542.761 43.314 543.774 44.4607 544.467 45.9007C545.214 47.2873 545.587 49.1007 545.587 51.3407C545.587 55.1807 544.307 58.274 541.747 60.6207C539.187 62.914 535.347 64.0607 530.227 64.0607Z" fill="black"/>
</svg>
