<svg width="234" height="90" viewBox="0 0 234 90" fill="none" xmlns="http://www.w3.org/2000/svg">
<path d="M234 33C234 51.2254 219.225 66 201 66C182.775 66 168 51.2254 168 33C168 14.7746 182.775 0 201 0C219.225 0 234 14.7746 234 33Z" fill="#34A948"/>
<path d="M16.5213 44.3333C20.2823 44.3333 23.5731 42.4532 25.5207 39.566L30.2891 42.7218C27.334 47.2206 22.297 50.1079 16.5213 50.1079C7.38758 50.1079 0 42.7218 0 33.5228C0 24.3909 7.38758 17.0048 16.5213 17.0048C22.297 17.0048 27.334 19.8921 30.2891 24.3237L25.5207 27.5468C23.5731 24.6595 20.2823 22.7794 16.5213 22.7794C10.6112 22.7794 5.77574 27.6139 5.77574 33.5228C5.77574 39.4988 10.6112 44.3333 16.5213 44.3333Z" fill="white"/>
<path d="M59.2501 17.6091H65.3617L52.467 49.4365L47.027 63H40.9155L46.3555 49.4365L33.5279 17.6091H39.6395L49.4448 41.9161L59.2501 17.6091Z" fill="white"/>
<path d="M95.9052 17.6091H101.681V49.4365H95.9052V45.2062C93.3531 48.2278 89.7265 50.1079 85.0925 50.1079C75.9587 50.1079 68.5712 42.7218 68.5712 33.5228C68.5712 24.3909 75.9587 17.0048 85.0925 17.0048C89.7265 17.0048 93.3531 18.8849 95.9052 21.8393V17.6091ZM85.0925 44.3333C91.0697 44.3333 95.9052 39.4988 95.9052 33.5228C95.9052 27.6139 91.0697 22.7794 85.0925 22.7794C79.1824 22.7794 74.3469 27.6139 74.3469 33.5228C74.3469 39.4988 79.1824 44.3333 85.0925 44.3333Z" fill="white"/>
<path d="M124.008 17.0048C131.664 17.0048 137.843 23.1823 137.843 30.8369V49.4365H132.067V30.8369C132.067 26.4053 128.508 22.7794 124.008 22.7794C119.575 22.7794 116.016 26.4053 116.016 30.8369V49.4365H110.24V17.6091H116.016V20.6307C117.762 18.3477 120.448 17.0048 124.008 17.0048Z" fill="white"/>
<path d="M163.522 43.6619L164.731 49.4365C163.522 49.8393 162.246 50.1079 160.836 50.1079C154.657 50.1079 149.553 45.0719 149.553 38.8273V22.7794H141.897V17.6091H149.553V7H155.396V17.6091H165V22.7794H155.396V38.8273C155.396 43.0576 159.963 45.4748 163.522 43.6619Z" fill="white"/>
<path d="M175.926 33C174.441 33 173.246 32.5951 172.342 31.7853C171.447 30.9755 171 29.839 171 28.3758C171 26.9955 171.591 25.8774 172.772 25.0215C173.962 24.1657 175.434 23.6504 177.188 23.4755L180.155 23.1995V22.9372C180.155 22.0722 179.962 21.451 179.578 21.0737C179.193 20.6964 178.616 20.5078 177.846 20.5078C176.047 20.5078 175.076 21.2992 174.933 22.882H171.416C171.524 21.2072 172.105 19.8268 173.161 18.7409C174.217 17.655 175.819 17.1121 177.967 17.1121C179.891 17.1121 181.394 17.5952 182.477 18.5615C183.569 19.5185 184.115 20.9863 184.115 22.9648V27.6304C184.115 28.8727 184.518 29.4939 185.323 29.4939V32.7791C185.233 32.7791 185.063 32.7837 184.813 32.7929C184.571 32.8021 184.379 32.8067 184.236 32.8067C184.218 32.8067 184.092 32.8067 183.86 32.8067C183.627 32.8067 183.484 32.8067 183.43 32.8067C183.377 32.8067 183.247 32.8021 183.041 32.7929C182.844 32.7837 182.71 32.7699 182.638 32.7515C182.567 32.7331 182.437 32.7055 182.249 32.6687C182.07 32.6319 181.936 32.5905 181.846 32.5445C181.766 32.4893 181.649 32.4203 181.497 32.3374C181.354 32.2546 181.238 32.1626 181.148 32.0614C181.059 31.9601 180.96 31.8451 180.853 31.7163C180.754 31.5782 180.669 31.4218 180.598 31.2469C180.177 31.7715 179.542 32.1948 178.692 32.5169C177.842 32.839 176.92 33 175.926 33ZM177.081 29.7838C178.092 29.7838 179.117 29.3237 180.155 28.4034V25.9878L178.101 26.2777C176.213 26.5445 175.269 27.1565 175.269 28.1135C175.269 28.6197 175.439 29.0246 175.779 29.3283C176.119 29.6319 176.553 29.7838 177.081 29.7838Z" fill="black"/>
<path d="M198.618 17.0569V20.9909C196.694 20.9909 195.271 21.3636 194.349 22.109C193.436 22.8544 192.98 24.1703 192.98 26.0568V32.7791H188.604V17.2363H192.698L192.953 19.3483C193.23 18.7409 193.852 18.2072 194.819 17.7471C195.794 17.287 197.061 17.0569 198.618 17.0569Z" fill="black"/>
<path d="M210.047 17.0845C212.06 17.0845 213.72 17.8345 215.027 19.3345C216.342 20.8345 217 22.7164 217 24.9801C217 27.2439 216.342 29.1304 215.027 30.6396C213.72 32.1396 212.06 32.8896 210.047 32.8896C208.23 32.8896 206.771 32.2776 205.67 31.0537L205.456 32.7791L201.63 32.7515V23.3758V14H205.952V18.6167C206.955 17.5952 208.319 17.0845 210.047 17.0845ZM209.187 29.0522C210.217 29.0522 211.058 28.6611 211.711 27.8789C212.364 27.0967 212.691 26.1304 212.691 24.9801C212.691 23.8114 212.364 22.836 211.711 22.0538C211.058 21.2716 210.217 20.8805 209.187 20.8805C208.454 20.8805 207.791 21.1105 207.201 21.5707C206.619 22.0308 206.203 22.6289 205.952 23.3651V26.5537C206.212 27.3083 206.633 27.9157 207.214 28.3758C207.796 28.8267 208.454 29.0522 209.187 29.0522Z" fill="black"/>





</svg>
