<?xml version="1.0" encoding="UTF-8"?>
<svg id="_Слой_2" data-name="Слой 2" xmlns="http://www.w3.org/2000/svg" viewBox="0 0 2773.13 517.68">
  <defs>
    <style>
      .cls-1 {
        fill: #fff;
      }

      .cls-2 {
        fill: #027cbf;
      }

      .cls-3 {
        fill: #009851;
      }
    </style>
  </defs>
  <g id="_Слой_1-2" data-name="Слой 1">
    <g>
      <g>
        <g>
          <path class="cls-3" d="M694.46,51.31l26.51,26.51-227.31,227.31-92.55-92.55L562.37,51.3c36.55-36.55,95.53-36.55,132.09,0Z"/>
          <path class="cls-3" d="M792.35,149.19l75.14,75.14c36.39,36.39,36.55,95.53,0,132.09l-161.26,161.26-141.18-141.18,227.31-227.31Z"/>
        </g>
        <g>
          <path class="cls-2" d="M200.38,466.38l-26.51-26.51,227.31-227.31,92.55,92.55-161.26,161.26c-36.55,36.55-95.53,36.55-132.09,0Z"/>
          <path class="cls-2" d="M102.5,368.49L27.35,293.35c-36.39-36.39-36.55-95.53,0-132.09L188.62,0l141.18,141.18L102.5,368.49Z"/>
        </g>
      </g>
      <g>
        <g>
          <path class="cls-1" d="M1199.33,307.47h95.47l-57.14-155.84-96.98,263.45h-33.83l116.53-312.46h28.94l117.27,312.46h-34.21l-27.81-74.14h-121.42l13.16-33.47Z"/>
          <path class="cls-1" d="M1377.72,420.7h-46.22l-27.81-74.14h-125.78l17.59-44.72h91.25l-49.09-133.9-93.04,252.76h-45.86l120.72-323.71h36.74l121.5,323.71Zm-38.43-11.25h22.19l-113.05-301.21h-21.14l-112.33,301.21h21.81l100.91-274.13,65.18,177.78h-99.7l-8.74,22.22h117.06l27.81,74.14Z"/>
        </g>
        <g>
          <path class="cls-1" d="M1579.72,102.61h31.58v249.1c0,42.25-19.92,63.37-59.77,63.37h-70.29c-39.34,0-59.02-21.12-59.02-63.37v-92.87c0-41.97,19.68-62.97,59.02-62.97h80.07v33.48h-80.07c-18.55,0-27.81,9.83-27.81,29.49v92.87c0,19.92,9.26,29.89,27.81,29.89h70.29c18.8,0,28.19-9.97,28.19-29.89V102.61Z"/>
          <path class="cls-1" d="M1551.52,420.7h-70.29c-42.29,0-64.64-23.86-64.64-68.99v-92.87c0-44.88,22.35-68.6,64.64-68.6h85.69v44.73h-85.69c-15.34,0-22.19,7.36-22.19,23.87v92.87c0,16.78,6.84,24.26,22.19,24.26h70.29c15.61,0,22.57-7.48,22.57-24.26V96.98h42.83v254.72c0,45.13-22.61,68.99-65.4,68.99Zm-70.29-219.21c-36.42,0-53.39,18.22-53.39,57.35v92.87c0,39.39,16.97,57.74,53.39,57.74h70.29c36.94,0,54.15-18.35,54.15-57.74V108.24h-20.33v243.47c0,22.9-12.01,35.51-33.82,35.51h-70.29c-21.56,0-33.44-12.61-33.44-35.51v-92.87c0-22.64,11.87-35.12,33.44-35.12h74.44v-22.23h-74.44Z"/>
        </g>
        <g>
          <path class="cls-1" d="M1828.55,195.86v33.48h-81.94c-18.8,0-28.19,9.83-28.19,29.49s9.39,29.9,28.19,29.9h41.35c39.84,0,59.76,20.99,59.76,62.97s-19.92,63.37-59.76,63.37h-90.58v-33.48h90.58c18.79,0,28.19-9.97,28.19-29.89s-9.41-29.49-28.19-29.49h-41.35c-39.84,0-59.76-21.13-59.76-63.38s19.92-62.97,59.76-62.97h81.94Z"/>
          <path class="cls-1" d="M1787.96,420.7h-96.21v-44.73h96.21c15.61,0,22.57-7.48,22.57-24.26s-6.96-23.87-22.57-23.87h-41.35c-42.78,0-65.39-23.86-65.39-69s22.61-68.6,65.39-68.6h87.56v44.73h-87.56c-15.61,0-22.57,7.36-22.57,23.87s6.96,24.27,22.57,24.27h41.35c42.78,0,65.39,23.72,65.39,68.6s-22.61,68.99-65.39,68.99Zm-84.96-11.25h84.96c36.93,0,54.14-18.35,54.14-57.74s-17.2-57.35-54.14-57.35h-41.35c-21.81,0-33.82-12.62-33.82-35.52s12.01-35.12,33.82-35.12h76.31v-22.23h-76.31c-36.93,0-54.14,18.22-54.14,57.35s17.2,57.75,54.14,57.75h41.35c21.81,0,33.82,12.47,33.82,35.12s-12.01,35.51-33.82,35.51h-84.96v22.23Z"/>
        </g>
        <g>
          <path class="cls-1" d="M2094.69,381.59v33.48h-119.16c-39.34,0-59.02-21.12-59.02-63.37V165.98c0-42.25,19.68-63.37,59.02-63.37h119.16v33.88h-119.16c-18.55,0-27.81,9.83-27.81,29.49v185.73c0,19.92,9.26,29.89,27.81,29.89h119.16Z"/>
          <path class="cls-1" d="M2100.31,420.7h-124.79c-42.29,0-64.64-23.86-64.64-68.99V165.98c0-45.14,22.35-68.99,64.64-68.99h124.79v45.13h-124.79c-15.34,0-22.19,7.36-22.19,23.87v185.73c0,16.78,6.84,24.26,22.19,24.26h124.79v44.73Zm-124.79-312.46c-36.42,0-53.39,18.35-53.39,57.74v185.73c0,39.39,16.97,57.74,53.39,57.74h113.54v-22.23h-113.54c-21.56,0-33.44-12.61-33.44-35.51V165.98c0-22.65,11.87-35.12,33.44-35.12h113.54v-22.62h-113.54Z"/>
        </g>
        <g>
          <path class="cls-1" d="M2182.26,229.34v-33.48h112.01c39.59,0,59.39,21,59.39,62.97v92.87c0,42.25-19.8,63.37-59.39,63.37h-70.29c-39.6,0-59.39-19.79-59.39-59.39v-8.36c0-39.06,19.79-58.59,59.39-58.59h79.68v33.48h-79.68c-18.55,0-27.82,8.36-27.82,25.11v8.36c0,17.28,9.27,25.91,27.82,25.91h70.29c18.54,0,27.81-9.97,27.81-29.89v-92.87c0-19.66-9.27-29.49-27.81-29.49h-112.01Z"/>
          <path class="cls-1" d="M2294.27,420.7h-70.29c-42.53,0-65.01-22.48-65.01-65.01v-8.36c0-42.01,22.48-64.21,65.01-64.21h85.31v44.73h-85.31c-15.56,0-22.2,5.83-22.2,19.48v8.36c0,14.22,6.64,20.28,22.2,20.28h70.29c15.34,0,22.19-7.48,22.19-24.26v-92.87c0-16.5-6.84-23.87-22.19-23.87h-117.64v-44.73h117.64c42.53,0,65.01,23.72,65.01,68.6v92.87c0,45.13-22.48,68.99-65.01,68.99Zm-70.29-126.34c-36.68,0-53.76,16.83-53.76,52.96v8.36c0,36.68,17.08,53.76,53.76,53.76h70.29c36.68,0,53.76-18.35,53.76-57.74v-92.87c0-39.12-17.08-57.35-53.76-57.35h-106.38v22.23h106.38c21.56,0,33.44,12.47,33.44,35.12v92.87c0,22.9-11.87,35.51-33.44,35.51h-70.29c-21.57,0-33.45-11.2-33.45-31.53v-8.36c0-19.82,11.88-30.73,33.45-30.73h74.06v-22.23h-74.06Z"/>
        </g>
        <g>
          <path class="cls-1" d="M2467.18,415.07h-31.21v-156.24c0-41.97,19.68-62.97,59.02-62.97h24.81v33.48h-24.81c-18.55,0-27.81,9.83-27.81,29.49v156.24Z"/>
          <path class="cls-1" d="M2472.8,420.7h-42.46v-161.86c0-44.88,22.35-68.6,64.64-68.6h30.44v44.73h-30.44c-15.34,0-22.19,7.36-22.19,23.87v161.86Zm-31.2-11.25h19.95v-150.61c0-22.64,11.87-35.12,33.44-35.12h19.18v-22.23h-19.18c-36.42,0-53.39,18.22-53.39,57.35v150.61Z"/>
        </g>
        <g>
          <path class="cls-1" d="M2735.93,102.61h31.58v249.1c0,42.25-19.92,63.37-59.77,63.37h-70.29c-39.34,0-59.02-21.12-59.02-63.37v-92.87c0-41.97,19.68-62.97,59.02-62.97h80.07v33.48h-80.07c-18.55,0-27.81,9.83-27.81,29.49v92.87c0,19.92,9.26,29.89,27.81,29.89h70.29c18.8,0,28.19-9.97,28.19-29.89V102.61Z"/>
          <path class="cls-1" d="M2707.73,420.7h-70.29c-42.29,0-64.64-23.86-64.64-68.99v-92.87c0-44.88,22.35-68.6,64.64-68.6h85.69v44.73h-85.69c-15.34,0-22.18,7.36-22.18,23.87v92.87c0,16.78,6.84,24.26,22.18,24.26h70.29c15.61,0,22.57-7.48,22.57-24.26V96.98h42.83v254.72c0,45.13-22.61,68.99-65.4,68.99Zm-70.29-219.21c-36.42,0-53.39,18.22-53.39,57.35v92.87c0,39.39,16.97,57.74,53.39,57.74h70.29c36.94,0,54.15-18.35,54.15-57.74V108.24h-20.33v243.47c0,22.9-12.01,35.51-33.82,35.51h-70.29c-21.56,0-33.43-12.61-33.43-35.51v-92.87c0-22.64,11.87-35.12,33.43-35.12h74.44v-22.23h-74.44Z"/>
        </g>
      </g>
    </g>
  </g>
</svg>