<svg xmlns="http://www.w3.org/2000/svg" xmlns:xlink="http://www.w3.org/1999/xlink" width="794" zoomAndPan="magnify" viewBox="0 0 595.5 842.249979" height="1123" preserveAspectRatio="xMidYMid meet" version="1.0"><defs><clipPath id="31b700ed72"><path d="M 0.015625 135.1875 L 594.984375 135.1875 L 594.984375 730.382812 L 0.015625 730.382812 Z M 0.015625 135.1875 " clip-rule="nonzero"/></clipPath></defs><g clip-path="url(#31b700ed72)"><path fill="#c00113" d="M 394.167969 449.8125 C 373.789062 449.8125 363.566406 474.496094 377.976562 488.902344 C 380.628906 491.558594 380.628906 495.863281 377.976562 498.515625 L 363.34375 513.148438 C 360.6875 515.800781 356.382812 515.800781 353.730469 513.148438 C 339.320312 498.742188 314.640625 508.964844 314.640625 529.339844 C 314.640625 533.09375 311.59375 536.136719 307.84375 536.136719 L 287.148438 536.136719 C 283.398438 536.136719 280.355469 533.09375 280.355469 529.339844 C 280.355469 508.941406 255.6875 498.722656 241.261719 513.148438 C 238.609375 515.800781 234.304688 515.800781 231.652344 513.148438 L 217.019531 498.515625 C 214.363281 495.863281 214.363281 491.558594 217.019531 488.902344 C 231.425781 474.496094 221.203125 449.8125 200.828125 449.8125 C 197.070312 449.8125 194.03125 446.765625 194.03125 443.015625 L 194.03125 422.324219 C 194.03125 418.570312 197.070312 415.527344 200.828125 415.527344 C 221.203125 415.527344 231.425781 390.84375 217.019531 376.4375 C 214.363281 373.78125 214.363281 369.476562 217.019531 366.824219 L 231.652344 352.191406 C 234.304688 349.539062 238.609375 349.539062 241.261719 352.191406 C 255.667969 366.597656 280.355469 356.375 280.355469 336 C 280.355469 332.242188 283.398438 329.203125 287.148438 329.203125 L 307.84375 329.203125 C 311.597656 329.203125 314.640625 332.242188 314.640625 336 C 314.640625 356.375 339.324219 366.597656 353.730469 352.191406 C 356.382812 349.539062 360.6875 349.539062 363.34375 352.191406 L 377.976562 366.824219 C 380.628906 369.476562 380.628906 373.78125 377.976562 376.4375 C 363.566406 390.84375 373.792969 415.527344 394.167969 415.527344 C 397.921875 415.527344 400.960938 418.570312 400.960938 422.324219 L 400.960938 443.015625 C 400.964844 446.769531 397.921875 449.8125 394.167969 449.8125 Z M 515.691406 518.539062 C 494.648438 571.976562 454.4375 616.03125 403.238281 641.957031 L 411.136719 615.160156 C 412.484375 610.574219 409.855469 605.761719 405.273438 604.414062 C 400.6875 603.070312 395.875 605.695312 394.527344 610.277344 L 381.269531 655.265625 C 379.960938 659.726562 382.402344 664.414062 386.761719 665.90625 L 431.097656 681.191406 C 435.628906 682.746094 440.558594 680.332031 442.113281 675.800781 C 443.667969 671.273438 441.253906 666.339844 436.722656 664.785156 L 412.746094 656.519531 C 466.945312 628.5625 509.464844 581.628906 531.824219 524.84375 C 533.5625 520.390625 531.363281 515.367188 526.910156 513.625 C 522.453125 511.886719 517.433594 514.085938 515.691406 518.539062 Z M 383.367188 214.472656 C 436.800781 235.515625 480.855469 275.726562 506.78125 326.925781 L 479.984375 319.027344 C 475.398438 317.679688 470.589844 320.304688 469.242188 324.890625 C 467.894531 329.476562 470.519531 334.289062 475.105469 335.636719 L 520.089844 348.894531 C 524.550781 350.203125 529.242188 347.757812 530.730469 343.402344 L 546.015625 299.066406 C 547.570312 294.535156 545.160156 289.605469 540.628906 288.050781 C 536.097656 286.496094 531.167969 288.910156 529.613281 293.4375 L 521.347656 317.414062 C 493.390625 263.21875 446.453125 220.699219 389.671875 198.339844 C 385.214844 196.597656 380.195312 198.800781 378.453125 203.253906 C 376.710938 207.710938 378.910156 212.734375 383.367188 214.472656 Z M 79.300781 346.796875 C 100.339844 293.363281 140.550781 249.308594 191.753906 223.382812 L 183.855469 250.179688 C 182.507812 254.765625 185.132812 259.574219 189.71875 260.921875 C 194.304688 262.269531 199.113281 259.644531 200.460938 255.058594 L 213.71875 210.074219 C 215.03125 205.613281 212.585938 200.921875 208.230469 199.433594 L 163.890625 184.148438 C 159.363281 182.59375 154.429688 185.007812 152.875 189.535156 C 151.324219 194.066406 153.734375 198.996094 158.265625 200.550781 L 182.242188 208.816406 C 128.046875 236.773438 85.523438 283.710938 63.167969 340.492188 C 61.425781 344.949219 63.625 349.972656 68.082031 351.710938 C 72.535156 353.453125 77.558594 351.253906 79.300781 346.796875 Z M 211.625 650.863281 C 158.1875 629.824219 114.132812 589.613281 88.210938 538.414062 L 115.003906 546.308594 C 119.589844 547.65625 124.402344 545.03125 125.75 540.445312 C 127.097656 535.859375 124.472656 531.050781 119.886719 529.703125 L 74.902344 516.445312 C 70.4375 515.132812 65.75 517.578125 64.257812 521.9375 L 48.972656 566.273438 C 47.417969 570.800781 49.832031 575.734375 54.363281 577.289062 C 58.890625 578.839844 63.824219 576.429688 65.378906 571.898438 L 73.644531 547.921875 C 101.601562 602.121094 148.535156 644.640625 205.320312 667 C 209.773438 668.738281 214.796875 666.539062 216.539062 662.082031 C 218.277344 657.628906 216.078125 652.605469 211.625 650.863281 Z M 540.4375 369.695312 L 594.976562 401.183594 L 594.976562 464.15625 L 540.4375 495.644531 L 485.898438 464.15625 L 485.898438 401.183594 Z M 62.992188 378.132812 L 125.964844 487.207031 L 0.015625 487.207031 Z M 297.496094 621.074219 C 327.617188 621.074219 352.035156 645.492188 352.035156 675.613281 C 352.035156 705.730469 327.617188 730.148438 297.496094 730.148438 C 267.375 730.148438 242.957031 705.734375 242.957031 675.613281 C 242.957031 645.492188 267.375 621.074219 297.496094 621.074219 Z M 242.957031 135.1875 L 352.035156 135.1875 L 352.035156 244.265625 L 242.957031 244.265625 Z M 297.496094 382.105469 C 269.570312 382.105469 246.933594 404.746094 246.933594 432.667969 C 246.933594 460.59375 269.570312 483.230469 297.496094 483.230469 C 325.417969 483.230469 348.058594 460.59375 348.058594 432.667969 C 348.058594 404.746094 325.421875 382.105469 297.496094 382.105469 Z M 297.496094 382.105469 " fill-opacity="1" fill-rule="evenodd"/></g></svg>