<svg xmlns="http://www.w3.org/2000/svg" xmlns:xlink="http://www.w3.org/1999/xlink" width="794" zoomAndPan="magnify" viewBox="0 0 595.5 842.249979" height="1123" preserveAspectRatio="xMidYMid meet" version="1.0"><defs><clipPath id="3f77edd761"><path d="M 1 125 L 594 125 L 594 718.4375 L 1 718.4375 Z M 1 125 " clip-rule="nonzero"/></clipPath></defs><g clip-path="url(#3f77edd761)"><path fill="#c00113" d="M 11.261719 605.753906 L 236.160156 605.753906 L 236.160156 677.3125 L 123.710938 677.3125 L 123.710938 718.203125 L 471.28125 718.203125 L 471.28125 677.3125 L 358.832031 677.3125 L 358.832031 605.753906 L 583.730469 605.753906 C 584.402344 605.753906 585.066406 605.6875 585.726562 605.558594 C 586.382812 605.425781 587.023438 605.234375 587.640625 604.976562 C 588.261719 604.71875 588.851562 604.40625 589.410156 604.03125 C 589.96875 603.660156 590.484375 603.234375 590.957031 602.761719 C 591.433594 602.285156 591.855469 601.769531 592.230469 601.210938 C 592.601562 600.652344 592.917969 600.0625 593.175781 599.445312 C 593.429688 598.824219 593.625 598.183594 593.757812 597.527344 C 593.886719 596.867188 593.953125 596.203125 593.953125 595.53125 L 593.953125 207.070312 C 593.953125 206.398438 593.886719 205.734375 593.757812 205.074219 C 593.625 204.417969 593.429688 203.777344 593.175781 203.15625 C 592.917969 202.539062 592.601562 201.949219 592.230469 201.390625 C 591.855469 200.832031 591.433594 200.316406 590.957031 199.839844 C 590.484375 199.367188 589.96875 198.941406 589.410156 198.570312 C 588.851562 198.195312 588.261719 197.882812 587.640625 197.625 C 587.023438 197.367188 586.382812 197.175781 585.722656 197.042969 C 585.066406 196.914062 584.402344 196.847656 583.730469 196.847656 L 358.832031 196.847656 L 358.832031 166.179688 L 452.675781 166.179688 C 452.875 166.742188 453.089844 167.296875 453.320312 167.847656 C 453.550781 168.398438 453.800781 168.941406 454.0625 169.476562 C 454.324219 170.011719 454.605469 170.539062 454.898438 171.058594 C 455.191406 171.578125 455.5 172.089844 455.824219 172.589844 C 456.148438 173.09375 456.488281 173.585938 456.839844 174.066406 C 457.191406 174.546875 457.558594 175.019531 457.9375 175.480469 C 458.316406 175.9375 458.710938 176.386719 459.117188 176.824219 C 459.523438 177.261719 459.941406 177.6875 460.371094 178.101562 C 460.804688 178.515625 461.246094 178.914062 461.699219 179.300781 C 462.15625 179.6875 462.621094 180.0625 463.097656 180.421875 C 463.574219 180.78125 464.058594 181.128906 464.554688 181.457031 C 465.050781 181.789062 465.558594 182.105469 466.070312 182.410156 C 466.585938 182.710938 467.109375 182.996094 467.640625 183.269531 C 468.171875 183.539062 468.710938 183.796875 469.257812 184.035156 C 469.804688 184.277344 470.359375 184.5 470.917969 184.707031 C 471.476562 184.914062 472.042969 185.105469 472.613281 185.28125 C 473.183594 185.457031 473.757812 185.613281 474.339844 185.753906 C 474.917969 185.894531 475.503906 186.019531 476.089844 186.128906 C 476.675781 186.234375 477.265625 186.324219 477.859375 186.398438 C 478.453125 186.46875 479.046875 186.523438 479.640625 186.5625 C 480.238281 186.601562 480.832031 186.621094 481.429688 186.625 C 482.027344 186.628906 482.625 186.613281 483.21875 186.582031 C 483.816406 186.550781 484.410156 186.5 485.003906 186.433594 C 485.597656 186.367188 486.1875 186.285156 486.777344 186.183594 C 487.363281 186.082031 487.949219 185.964844 488.53125 185.828125 C 489.113281 185.695312 489.6875 185.542969 490.261719 185.371094 C 490.832031 185.203125 491.402344 185.019531 491.960938 184.816406 C 492.523438 184.613281 493.078125 184.398438 493.628906 184.164062 C 494.175781 183.929688 494.71875 183.679688 495.253906 183.414062 C 495.789062 183.148438 496.3125 182.863281 496.832031 182.570312 C 497.347656 182.273438 497.859375 181.960938 498.359375 181.632812 C 498.859375 181.308594 499.347656 180.96875 499.828125 180.613281 C 500.308594 180.257812 500.777344 179.886719 501.234375 179.507812 C 501.691406 179.125 502.140625 178.726562 502.574219 178.320312 C 503.011719 177.910156 503.433594 177.492188 503.84375 177.058594 C 504.253906 176.625 504.652344 176.179688 505.039062 175.722656 C 505.421875 175.265625 505.792969 174.800781 506.152344 174.320312 C 506.507812 173.84375 506.851562 173.355469 507.179688 172.859375 C 507.507812 172.359375 507.824219 171.851562 508.121094 171.335938 C 508.421875 170.820312 508.707031 170.296875 508.972656 169.761719 C 509.242188 169.230469 509.496094 168.6875 509.734375 168.140625 C 509.96875 167.59375 510.191406 167.039062 510.394531 166.480469 C 510.601562 165.917969 510.789062 165.351562 510.960938 164.78125 C 511.132812 164.207031 511.289062 163.632812 511.425781 163.050781 C 511.5625 162.472656 511.683594 161.886719 511.789062 161.300781 C 511.894531 160.710938 511.980469 160.121094 512.050781 159.527344 C 512.117188 158.9375 512.171875 158.339844 512.207031 157.746094 C 512.238281 157.148438 512.257812 156.554688 512.257812 155.957031 C 512.257812 155.359375 512.238281 154.761719 512.207031 154.167969 C 512.171875 153.570312 512.117188 152.976562 512.050781 152.382812 C 511.980469 151.792969 511.894531 151.203125 511.789062 150.613281 C 511.683594 150.027344 511.5625 149.441406 511.425781 148.859375 C 511.289062 148.28125 511.132812 147.703125 510.960938 147.132812 C 510.789062 146.5625 510.601562 145.996094 510.394531 145.433594 C 510.191406 144.875 509.96875 144.320312 509.734375 143.773438 C 509.496094 143.222656 509.242188 142.683594 508.972656 142.152344 C 508.707031 141.617188 508.421875 141.09375 508.121094 140.578125 C 507.824219 140.058594 507.507812 139.554688 507.179688 139.054688 C 506.851562 138.558594 506.507812 138.070312 506.152344 137.589844 C 505.792969 137.113281 505.421875 136.644531 505.039062 136.1875 C 504.652344 135.734375 504.253906 135.289062 503.84375 134.855469 C 503.433594 134.421875 503.011719 134 502.574219 133.59375 C 502.140625 133.183594 501.691406 132.789062 501.234375 132.40625 C 500.777344 132.023438 500.308594 131.65625 499.828125 131.300781 C 499.347656 130.945312 498.859375 130.605469 498.359375 130.277344 C 497.859375 129.953125 497.347656 129.640625 496.832031 129.34375 C 496.3125 129.046875 495.789062 128.765625 495.253906 128.5 C 494.71875 128.234375 494.175781 127.984375 493.628906 127.75 C 493.078125 127.515625 492.523438 127.296875 491.960938 127.097656 C 491.402344 126.894531 490.832031 126.707031 490.261719 126.539062 C 489.6875 126.371094 489.113281 126.21875 488.53125 126.085938 C 487.949219 125.949219 487.363281 125.832031 486.777344 125.730469 C 486.1875 125.628906 485.597656 125.546875 485.003906 125.480469 C 484.410156 125.414062 483.816406 125.363281 483.21875 125.332031 C 482.625 125.300781 482.027344 125.285156 481.429688 125.289062 C 480.832031 125.292969 480.238281 125.3125 479.640625 125.351562 C 479.046875 125.386719 478.453125 125.445312 477.859375 125.515625 C 477.265625 125.589844 476.675781 125.679688 476.089844 125.785156 C 475.503906 125.890625 474.917969 126.015625 474.339844 126.15625 C 473.757812 126.296875 473.183594 126.457031 472.613281 126.632812 C 472.042969 126.804688 471.476562 126.996094 470.917969 127.203125 C 470.359375 127.414062 469.804688 127.636719 469.257812 127.875 C 468.710938 128.117188 468.171875 128.371094 467.640625 128.644531 C 467.109375 128.914062 466.585938 129.203125 466.070312 129.503906 C 465.558594 129.804688 465.050781 130.121094 464.554688 130.453125 C 464.058594 130.785156 463.574219 131.132812 463.097656 131.492188 C 462.621094 131.851562 462.15625 132.226562 461.699219 132.613281 C 461.246094 133 460.804688 133.398438 460.371094 133.8125 C 459.941406 134.226562 459.523438 134.648438 459.117188 135.085938 C 458.710938 135.523438 458.316406 135.972656 457.9375 136.433594 C 457.558594 136.894531 457.191406 137.363281 456.839844 137.847656 C 456.488281 138.328125 456.148438 138.820312 455.824219 139.320312 C 455.5 139.824219 455.191406 140.332031 454.898438 140.851562 C 454.605469 141.371094 454.324219 141.898438 454.0625 142.433594 C 453.800781 142.972656 453.550781 143.515625 453.320312 144.0625 C 453.089844 144.613281 452.875 145.171875 452.675781 145.734375 L 348.609375 145.734375 C 347.9375 145.734375 347.273438 145.800781 346.613281 145.929688 C 345.957031 146.0625 345.316406 146.253906 344.695312 146.511719 C 344.078125 146.769531 343.488281 147.082031 342.929688 147.457031 C 342.371094 147.828125 341.855469 148.253906 341.378906 148.726562 C 340.90625 149.203125 340.480469 149.71875 340.109375 150.277344 C 339.734375 150.835938 339.421875 151.425781 339.164062 152.042969 C 338.90625 152.664062 338.714844 153.304688 338.582031 153.960938 C 338.453125 154.621094 338.386719 155.285156 338.386719 155.957031 L 338.386719 196.847656 L 256.605469 196.847656 L 256.605469 155.957031 C 256.605469 155.285156 256.539062 154.621094 256.40625 153.960938 C 256.277344 153.304688 256.082031 152.664062 255.828125 152.042969 C 255.570312 151.425781 255.253906 150.835938 254.882812 150.277344 C 254.507812 149.71875 254.085938 149.203125 253.609375 148.726562 C 253.136719 148.253906 252.621094 147.828125 252.0625 147.457031 C 251.503906 147.082031 250.914062 146.769531 250.292969 146.511719 C 249.671875 146.253906 249.035156 146.0625 248.375 145.929688 C 247.71875 145.800781 247.054688 145.734375 246.382812 145.734375 L 142.316406 145.734375 C 142.117188 145.171875 141.902344 144.613281 141.667969 144.0625 C 141.4375 143.515625 141.191406 142.972656 140.925781 142.433594 C 140.664062 141.898438 140.386719 141.371094 140.089844 140.851562 C 139.796875 140.332031 139.488281 139.824219 139.164062 139.320312 C 138.839844 138.820312 138.503906 138.328125 138.152344 137.847656 C 137.796875 137.363281 137.433594 136.894531 137.050781 136.433594 C 136.671875 135.972656 136.277344 135.523438 135.875 135.085938 C 135.46875 134.648438 135.046875 134.226562 134.617188 133.8125 C 134.1875 133.398438 133.742188 133 133.289062 132.613281 C 132.835938 132.226562 132.371094 131.851562 131.894531 131.492188 C 131.417969 131.132812 130.929688 130.785156 130.433594 130.453125 C 129.9375 130.121094 129.433594 129.804688 128.917969 129.503906 C 128.402344 129.203125 127.878906 128.914062 127.347656 128.644531 C 126.816406 128.371094 126.277344 128.117188 125.730469 127.875 C 125.183594 127.636719 124.632812 127.414062 124.074219 127.203125 C 123.511719 126.996094 122.949219 126.804688 122.378906 126.632812 C 121.804688 126.457031 121.230469 126.296875 120.652344 126.15625 C 120.070312 126.015625 119.488281 125.890625 118.898438 125.785156 C 118.3125 125.679688 117.722656 125.589844 117.132812 125.515625 C 116.539062 125.445312 115.945312 125.386719 115.347656 125.351562 C 114.753906 125.3125 114.15625 125.292969 113.558594 125.289062 C 112.964844 125.285156 112.367188 125.300781 111.769531 125.332031 C 111.175781 125.363281 110.578125 125.414062 109.988281 125.480469 C 109.394531 125.546875 108.804688 125.628906 108.214844 125.730469 C 107.625 125.832031 107.042969 125.949219 106.460938 126.085938 C 105.878906 126.21875 105.300781 126.371094 104.730469 126.539062 C 104.15625 126.707031 103.589844 126.894531 103.027344 127.097656 C 102.464844 127.296875 101.910156 127.515625 101.363281 127.75 C 100.8125 127.984375 100.273438 128.234375 99.738281 128.5 C 99.203125 128.765625 98.675781 129.046875 98.160156 129.34375 C 97.640625 129.640625 97.132812 129.953125 96.632812 130.277344 C 96.132812 130.605469 95.644531 130.945312 95.164062 131.300781 C 94.683594 131.65625 94.214844 132.023438 93.753906 132.40625 C 93.296875 132.789062 92.851562 133.183594 92.414062 133.59375 C 91.980469 134 91.558594 134.421875 91.144531 134.855469 C 90.734375 135.289062 90.339844 135.734375 89.953125 136.1875 C 89.570312 136.644531 89.199219 137.113281 88.839844 137.589844 C 88.484375 138.070312 88.140625 138.558594 87.808594 139.054688 C 87.480469 139.554688 87.167969 140.058594 86.867188 140.578125 C 86.570312 141.09375 86.285156 141.617188 86.015625 142.152344 C 85.746094 142.683594 85.496094 143.222656 85.257812 143.773438 C 85.019531 144.320312 84.800781 144.875 84.59375 145.433594 C 84.390625 145.996094 84.203125 146.5625 84.03125 147.132812 C 83.859375 147.703125 83.703125 148.28125 83.566406 148.859375 C 83.425781 149.441406 83.304688 150.027344 83.203125 150.613281 C 83.097656 151.203125 83.011719 151.792969 82.941406 152.382812 C 82.871094 152.976562 82.820312 153.570312 82.785156 154.167969 C 82.75 154.761719 82.734375 155.359375 82.734375 155.957031 C 82.734375 156.554688 82.75 157.148438 82.785156 157.746094 C 82.820312 158.339844 82.871094 158.9375 82.941406 159.527344 C 83.011719 160.121094 83.097656 160.710938 83.203125 161.300781 C 83.304688 161.886719 83.425781 162.472656 83.566406 163.050781 C 83.703125 163.632812 83.859375 164.207031 84.03125 164.78125 C 84.203125 165.351562 84.390625 165.917969 84.59375 166.480469 C 84.800781 167.039062 85.019531 167.59375 85.257812 168.140625 C 85.496094 168.6875 85.746094 169.230469 86.015625 169.761719 C 86.285156 170.296875 86.570312 170.820312 86.867188 171.335938 C 87.167969 171.851562 87.480469 172.359375 87.808594 172.859375 C 88.140625 173.355469 88.484375 173.84375 88.839844 174.320312 C 89.199219 174.800781 89.570312 175.265625 89.953125 175.722656 C 90.339844 176.179688 90.734375 176.625 91.144531 177.058594 C 91.558594 177.492188 91.980469 177.910156 92.414062 178.320312 C 92.851562 178.726562 93.296875 179.125 93.753906 179.507812 C 94.214844 179.886719 94.683594 180.257812 95.164062 180.613281 C 95.644531 180.96875 96.132812 181.308594 96.632812 181.632812 C 97.132812 181.960938 97.640625 182.273438 98.160156 182.570312 C 98.675781 182.863281 99.203125 183.148438 99.738281 183.414062 C 100.273438 183.679688 100.8125 183.929688 101.363281 184.164062 C 101.910156 184.398438 102.464844 184.613281 103.027344 184.816406 C 103.589844 185.019531 104.15625 185.203125 104.730469 185.371094 C 105.300781 185.542969 105.878906 185.695312 106.460938 185.828125 C 107.042969 185.964844 107.625 186.082031 108.214844 186.183594 C 108.804688 186.285156 109.394531 186.367188 109.988281 186.433594 C 110.578125 186.5 111.175781 186.550781 111.769531 186.582031 C 112.367188 186.613281 112.964844 186.628906 113.558594 186.625 C 114.15625 186.621094 114.753906 186.601562 115.347656 186.5625 C 115.945312 186.523438 116.539062 186.46875 117.132812 186.398438 C 117.722656 186.324219 118.3125 186.234375 118.898438 186.128906 C 119.488281 186.019531 120.070312 185.894531 120.652344 185.753906 C 121.230469 185.613281 121.804688 185.457031 122.378906 185.28125 C 122.949219 185.105469 123.511719 184.914062 124.074219 184.707031 C 124.632812 184.5 125.183594 184.277344 125.730469 184.035156 C 126.277344 183.796875 126.816406 183.539062 127.347656 183.269531 C 127.878906 182.996094 128.402344 182.710938 128.917969 182.410156 C 129.433594 182.105469 129.9375 181.789062 130.433594 181.457031 C 130.929688 181.128906 131.417969 180.78125 131.894531 180.421875 C 132.371094 180.0625 132.835938 179.6875 133.289062 179.300781 C 133.742188 178.914062 134.1875 178.515625 134.617188 178.101562 C 135.046875 177.6875 135.46875 177.261719 135.875 176.824219 C 136.277344 176.386719 136.671875 175.9375 137.050781 175.480469 C 137.433594 175.019531 137.796875 174.546875 138.152344 174.066406 C 138.503906 173.585938 138.839844 173.09375 139.164062 172.589844 C 139.488281 172.089844 139.796875 171.578125 140.089844 171.058594 C 140.386719 170.539062 140.664062 170.011719 140.925781 169.476562 C 141.191406 168.941406 141.4375 168.398438 141.667969 167.847656 C 141.902344 167.296875 142.117188 166.742188 142.316406 166.179688 L 236.160156 166.179688 L 236.160156 196.847656 L 11.261719 196.847656 C 10.589844 196.847656 9.925781 196.914062 9.265625 197.042969 C 8.605469 197.175781 7.96875 197.367188 7.347656 197.625 C 6.726562 197.882812 6.140625 198.195312 5.582031 198.570312 C 5.023438 198.941406 4.507812 199.367188 4.03125 199.839844 C 3.558594 200.316406 3.132812 200.832031 2.761719 201.390625 C 2.386719 201.949219 2.074219 202.539062 1.816406 203.15625 C 1.558594 203.777344 1.363281 204.417969 1.234375 205.074219 C 1.101562 205.734375 1.039062 206.398438 1.039062 207.070312 L 1.039062 595.53125 C 1.039062 596.203125 1.101562 596.867188 1.234375 597.527344 C 1.363281 598.183594 1.558594 598.824219 1.816406 599.445312 C 2.074219 600.0625 2.386719 600.652344 2.761719 601.210938 C 3.132812 601.769531 3.558594 602.285156 4.03125 602.761719 C 4.507812 603.234375 5.023438 603.660156 5.582031 604.03125 C 6.140625 604.40625 6.726562 604.71875 7.347656 604.976562 C 7.96875 605.234375 8.605469 605.425781 9.265625 605.558594 C 9.925781 605.6875 10.589844 605.753906 11.261719 605.753906 Z M 256.605469 217.292969 L 338.386719 217.292969 L 338.386719 331.480469 L 331.535156 338.328125 C 327.203125 335.96875 322.671875 334.097656 317.941406 332.707031 L 317.941406 309.296875 L 277.050781 309.296875 L 277.050781 332.707031 C 272.316406 334.097656 267.785156 335.96875 263.453125 338.328125 L 256.605469 331.480469 Z M 297.496094 360.410156 C 298.835938 360.410156 300.171875 360.476562 301.503906 360.605469 C 302.835938 360.738281 304.160156 360.933594 305.472656 361.195312 C 306.785156 361.457031 308.082031 361.78125 309.363281 362.171875 C 310.648438 362.558594 311.90625 363.011719 313.144531 363.523438 C 314.378906 364.035156 315.589844 364.605469 316.769531 365.238281 C 317.953125 365.871094 319.097656 366.558594 320.210938 367.300781 C 321.328125 368.046875 322.402344 368.84375 323.4375 369.691406 C 324.472656 370.542969 325.460938 371.441406 326.410156 372.386719 C 327.355469 373.332031 328.253906 374.324219 329.105469 375.359375 C 329.953125 376.394531 330.75 377.46875 331.496094 378.582031 C 332.238281 379.695312 332.925781 380.84375 333.558594 382.023438 C 334.1875 383.207031 334.761719 384.414062 335.273438 385.652344 C 335.785156 386.890625 336.238281 388.148438 336.625 389.429688 C 337.015625 390.710938 337.339844 392.011719 337.601562 393.324219 C 337.863281 394.636719 338.058594 395.960938 338.1875 397.292969 C 338.320312 398.625 338.386719 399.960938 338.386719 401.300781 C 338.386719 402.640625 338.320312 403.976562 338.1875 405.308594 C 338.058594 406.640625 337.863281 407.964844 337.601562 409.277344 C 337.339844 410.589844 337.015625 411.890625 336.625 413.171875 C 336.238281 414.453125 335.785156 415.710938 335.273438 416.949219 C 334.761719 418.1875 334.1875 419.394531 333.558594 420.578125 C 332.925781 421.757812 332.238281 422.90625 331.496094 424.019531 C 330.75 425.132812 329.953125 426.207031 329.105469 427.242188 C 328.253906 428.277344 327.355469 429.269531 326.410156 430.214844 C 325.460938 431.160156 324.472656 432.058594 323.4375 432.910156 C 322.402344 433.757812 321.328125 434.554688 320.210938 435.300781 C 319.097656 436.042969 317.953125 436.730469 316.769531 437.363281 C 315.589844 437.996094 314.378906 438.566406 313.144531 439.078125 C 311.90625 439.589844 310.648438 440.042969 309.363281 440.429688 C 308.082031 440.820312 306.785156 441.144531 305.472656 441.40625 C 304.160156 441.667969 302.835938 441.863281 301.503906 441.996094 C 300.171875 442.125 298.835938 442.191406 297.496094 442.191406 C 296.15625 442.191406 294.820312 442.125 293.488281 441.996094 C 292.15625 441.863281 290.832031 441.667969 289.519531 441.40625 C 288.203125 441.144531 286.90625 440.820312 285.625 440.429688 C 284.34375 440.042969 283.085938 439.589844 281.847656 439.078125 C 280.609375 438.566406 279.402344 437.996094 278.21875 437.363281 C 277.039062 436.730469 275.890625 436.042969 274.777344 435.300781 C 273.664062 434.554688 272.589844 433.757812 271.554688 432.910156 C 270.519531 432.058594 269.527344 431.160156 268.582031 430.214844 C 267.632812 429.269531 266.734375 428.277344 265.886719 427.242188 C 265.035156 426.207031 264.238281 425.132812 263.496094 424.019531 C 262.75 422.90625 262.0625 421.757812 261.433594 420.578125 C 260.800781 419.394531 260.230469 418.1875 259.71875 416.949219 C 259.203125 415.710938 258.753906 414.453125 258.363281 413.171875 C 257.976562 411.890625 257.652344 410.589844 257.390625 409.277344 C 257.128906 407.964844 256.933594 406.640625 256.800781 405.308594 C 256.671875 403.976562 256.605469 402.640625 256.605469 401.300781 C 256.605469 399.960938 256.671875 398.625 256.800781 397.292969 C 256.933594 395.960938 257.128906 394.636719 257.390625 393.324219 C 257.652344 392.011719 257.976562 390.710938 258.363281 389.429688 C 258.753906 388.148438 259.203125 386.890625 259.71875 385.652344 C 260.230469 384.414062 260.800781 383.207031 261.433594 382.023438 C 262.0625 380.84375 262.75 379.695312 263.496094 378.582031 C 264.238281 377.46875 265.035156 376.394531 265.886719 375.359375 C 266.734375 374.324219 267.632812 373.332031 268.582031 372.386719 C 269.527344 371.441406 270.519531 370.542969 271.554688 369.691406 C 272.589844 368.84375 273.664062 368.046875 274.777344 367.300781 C 275.890625 366.558594 277.039062 365.871094 278.21875 365.238281 C 279.402344 364.605469 280.609375 364.035156 281.847656 363.523438 C 283.085938 363.011719 284.34375 362.558594 285.625 362.171875 C 286.90625 361.78125 288.203125 361.457031 289.519531 361.195312 C 290.832031 360.933594 292.15625 360.738281 293.488281 360.605469 C 294.820312 360.476562 296.15625 360.410156 297.496094 360.410156 Z M 21.484375 217.292969 L 236.160156 217.292969 L 236.160156 332.503906 L 217.960938 350.699219 L 234.523438 367.257812 C 232.164062 371.589844 230.289062 376.121094 228.902344 380.855469 L 205.492188 380.855469 L 205.492188 391.078125 L 101.425781 391.078125 C 101.226562 390.515625 101.011719 389.957031 100.777344 389.410156 C 100.546875 388.859375 100.300781 388.316406 100.035156 387.78125 C 99.773438 387.242188 99.496094 386.714844 99.199219 386.195312 C 98.90625 385.675781 98.597656 385.167969 98.273438 384.664062 C 97.949219 384.164062 97.613281 383.671875 97.261719 383.191406 C 96.90625 382.710938 96.542969 382.238281 96.160156 381.777344 C 95.78125 381.316406 95.386719 380.867188 94.980469 380.429688 C 94.578125 379.996094 94.15625 379.570312 93.726562 379.15625 C 93.296875 378.742188 92.851562 378.34375 92.398438 377.957031 C 91.945312 377.570312 91.480469 377.195312 91.003906 376.835938 C 90.527344 376.476562 90.039062 376.128906 89.542969 375.796875 C 89.046875 375.46875 88.542969 375.148438 88.027344 374.847656 C 87.511719 374.546875 86.988281 374.257812 86.457031 373.988281 C 85.925781 373.714844 85.386719 373.460938 84.839844 373.222656 C 84.292969 372.980469 83.742188 372.757812 83.183594 372.550781 C 82.621094 372.339844 82.058594 372.152344 81.488281 371.976562 C 80.914062 371.800781 80.339844 371.644531 79.761719 371.503906 C 79.179688 371.359375 78.597656 371.238281 78.007812 371.128906 C 77.421875 371.023438 76.832031 370.933594 76.238281 370.859375 C 75.648438 370.789062 75.054688 370.734375 74.457031 370.695312 C 73.863281 370.65625 73.265625 370.636719 72.667969 370.632812 C 72.074219 370.628906 71.476562 370.644531 70.878906 370.675781 C 70.285156 370.707031 69.6875 370.757812 69.097656 370.824219 C 68.503906 370.890625 67.914062 370.972656 67.324219 371.074219 C 66.734375 371.175781 66.152344 371.292969 65.570312 371.429688 C 64.988281 371.5625 64.410156 371.714844 63.839844 371.882812 C 63.265625 372.054688 62.699219 372.238281 62.136719 372.441406 C 61.574219 372.640625 61.019531 372.859375 60.472656 373.09375 C 59.921875 373.328125 59.378906 373.578125 58.847656 373.84375 C 58.3125 374.109375 57.785156 374.390625 57.269531 374.6875 C 56.75 374.984375 56.242188 375.296875 55.742188 375.621094 C 55.242188 375.949219 54.753906 376.289062 54.273438 376.644531 C 53.792969 377 53.324219 377.367188 52.863281 377.75 C 52.40625 378.132812 51.960938 378.527344 51.523438 378.9375 C 51.089844 379.34375 50.667969 379.765625 50.253906 380.199219 C 49.84375 380.632812 49.445312 381.078125 49.0625 381.535156 C 48.679688 381.988281 48.308594 382.457031 47.949219 382.933594 C 47.59375 383.414062 47.25 383.902344 46.917969 384.398438 C 46.589844 384.898438 46.277344 385.40625 45.976562 385.921875 C 45.679688 386.4375 45.394531 386.960938 45.125 387.496094 C 44.855469 388.027344 44.605469 388.566406 44.367188 389.117188 C 44.128906 389.664062 43.910156 390.21875 43.703125 390.777344 C 43.5 391.339844 43.3125 391.90625 43.140625 392.476562 C 42.96875 393.046875 42.8125 393.625 42.675781 394.207031 C 42.535156 394.785156 42.414062 395.371094 42.3125 395.957031 C 42.207031 396.546875 42.121094 397.136719 42.050781 397.730469 C 41.980469 398.320312 41.929688 398.914062 41.894531 399.511719 C 41.859375 400.109375 41.84375 400.703125 41.84375 401.300781 C 41.84375 401.898438 41.859375 402.492188 41.894531 403.089844 C 41.929688 403.6875 41.980469 404.28125 42.050781 404.871094 C 42.121094 405.464844 42.207031 406.054688 42.3125 406.644531 C 42.414062 407.230469 42.535156 407.816406 42.675781 408.394531 C 42.8125 408.976562 42.96875 409.554688 43.140625 410.125 C 43.3125 410.695312 43.5 411.261719 43.703125 411.824219 C 43.910156 412.382812 44.128906 412.9375 44.367188 413.484375 C 44.605469 414.035156 44.855469 414.574219 45.125 415.105469 C 45.394531 415.640625 45.679688 416.164062 45.976562 416.679688 C 46.277344 417.195312 46.589844 417.703125 46.917969 418.203125 C 47.25 418.699219 47.59375 419.1875 47.949219 419.667969 C 48.308594 420.144531 48.679688 420.613281 49.0625 421.066406 C 49.445312 421.523438 49.84375 421.96875 50.253906 422.402344 C 50.667969 422.835938 51.089844 423.257812 51.523438 423.664062 C 51.960938 424.074219 52.40625 424.46875 52.863281 424.851562 C 53.324219 425.234375 53.792969 425.601562 54.273438 425.957031 C 54.75 426.3125 55.242188 426.652344 55.742188 426.976562 C 56.242188 427.304688 56.75 427.617188 57.269531 427.914062 C 57.785156 428.210938 58.3125 428.492188 58.847656 428.757812 C 59.378906 429.023438 59.921875 429.273438 60.472656 429.507812 C 61.019531 429.742188 61.574219 429.960938 62.136719 430.160156 C 62.699219 430.363281 63.265625 430.546875 63.839844 430.71875 C 64.410156 430.886719 64.988281 431.039062 65.570312 431.171875 C 66.152344 431.308594 66.734375 431.425781 67.324219 431.527344 C 67.914062 431.628906 68.503906 431.710938 69.097656 431.777344 C 69.6875 431.84375 70.285156 431.894531 70.878906 431.925781 C 71.476562 431.957031 72.074219 431.972656 72.667969 431.96875 C 73.265625 431.964844 73.863281 431.945312 74.457031 431.90625 C 75.054688 431.867188 75.648438 431.8125 76.238281 431.742188 C 76.832031 431.667969 77.421875 431.578125 78.007812 431.472656 C 78.597656 431.363281 79.179688 431.242188 79.761719 431.097656 C 80.339844 430.957031 80.914062 430.800781 81.484375 430.625 C 82.058594 430.449219 82.621094 430.261719 83.183594 430.050781 C 83.742188 429.84375 84.292969 429.621094 84.839844 429.378906 C 85.386719 429.140625 85.925781 428.886719 86.457031 428.613281 C 86.988281 428.34375 87.511719 428.054688 88.027344 427.753906 C 88.542969 427.453125 89.046875 427.132812 89.542969 426.804688 C 90.039062 426.472656 90.527344 426.125 91.003906 425.765625 C 91.480469 425.40625 91.945312 425.03125 92.398438 424.644531 C 92.851562 424.257812 93.296875 423.859375 93.726562 423.445312 C 94.15625 423.03125 94.578125 422.605469 94.980469 422.171875 C 95.386719 421.734375 95.78125 421.285156 96.160156 420.824219 C 96.542969 420.363281 96.90625 419.890625 97.261719 419.410156 C 97.613281 418.929688 97.949219 418.4375 98.273438 417.9375 C 98.597656 417.433594 98.90625 416.925781 99.199219 416.40625 C 99.496094 415.886719 99.773438 415.355469 100.035156 414.820312 C 100.300781 414.285156 100.546875 413.742188 100.777344 413.191406 C 101.011719 412.644531 101.226562 412.085938 101.425781 411.523438 L 205.492188 411.523438 L 205.492188 421.746094 L 228.902344 421.746094 C 230.289062 426.480469 232.164062 431.011719 234.523438 435.34375 L 217.960938 452.414062 L 246.894531 481.34375 L 263.453125 464.785156 C 267.785156 467.140625 272.316406 469.015625 277.050781 470.40625 L 277.050781 493.304688 L 317.941406 493.304688 L 317.941406 469.894531 C 322.671875 468.503906 327.203125 466.632812 331.535156 464.273438 L 348.609375 480.832031 L 377.027344 452.414062 L 360.46875 435.851562 C 362.859375 431.359375 364.734375 426.65625 366.089844 421.746094 L 389.5 421.746094 L 389.5 411.523438 L 493.566406 411.523438 C 493.765625 412.085938 493.980469 412.644531 494.210938 413.191406 C 494.441406 413.742188 494.691406 414.285156 494.953125 414.820312 C 495.21875 415.355469 495.496094 415.886719 495.789062 416.40625 C 496.082031 416.925781 496.390625 417.433594 496.714844 417.9375 C 497.039062 418.4375 497.378906 418.929688 497.730469 419.410156 C 498.082031 419.890625 498.449219 420.363281 498.828125 420.824219 C 499.207031 421.285156 499.601562 421.734375 500.007812 422.167969 C 500.414062 422.605469 500.832031 423.03125 501.265625 423.445312 C 501.695312 423.859375 502.136719 424.257812 502.589844 424.644531 C 503.046875 425.03125 503.511719 425.40625 503.988281 425.765625 C 504.464844 426.125 504.949219 426.472656 505.445312 426.804688 C 505.941406 427.132812 506.449219 427.453125 506.960938 427.753906 C 507.476562 428.054688 508 428.34375 508.53125 428.613281 C 509.0625 428.886719 509.601562 429.140625 510.148438 429.378906 C 510.695312 429.621094 511.25 429.84375 511.808594 430.050781 C 512.367188 430.261719 512.933594 430.449219 513.503906 430.625 C 514.074219 430.800781 514.648438 430.957031 515.230469 431.097656 C 515.808594 431.242188 516.394531 431.363281 516.980469 431.472656 C 517.566406 431.578125 518.15625 431.667969 518.75 431.742188 C 519.34375 431.8125 519.9375 431.867188 520.53125 431.90625 C 521.128906 431.945312 521.722656 431.964844 522.320312 431.96875 C 522.917969 431.972656 523.515625 431.957031 524.109375 431.925781 C 524.707031 431.894531 525.300781 431.84375 525.894531 431.777344 C 526.488281 431.710938 527.078125 431.628906 527.667969 431.527344 C 528.253906 431.425781 528.839844 431.308594 529.421875 431.171875 C 530.003906 431.039062 530.578125 430.886719 531.152344 430.71875 C 531.722656 430.546875 532.292969 430.363281 532.851562 430.160156 C 533.414062 429.960938 533.96875 429.742188 534.519531 429.507812 C 535.066406 429.273438 535.609375 429.023438 536.144531 428.757812 C 536.679688 428.492188 537.203125 428.210938 537.722656 427.914062 C 538.242188 427.617188 538.75 427.304688 539.25 426.976562 C 539.75 426.652344 540.238281 426.3125 540.71875 425.957031 C 541.199219 425.601562 541.667969 425.234375 542.125 424.851562 C 542.582031 424.46875 543.03125 424.074219 543.464844 423.664062 C 543.902344 423.257812 544.324219 422.835938 544.734375 422.402344 C 545.144531 421.96875 545.542969 421.523438 545.929688 421.066406 C 546.3125 420.613281 546.683594 420.144531 547.042969 419.667969 C 547.398438 419.1875 547.742188 418.699219 548.070312 418.203125 C 548.398438 417.703125 548.714844 417.195312 549.011719 416.679688 C 549.3125 416.164062 549.597656 415.640625 549.863281 415.105469 C 550.132812 414.574219 550.386719 414.035156 550.625 413.484375 C 550.859375 412.9375 551.082031 412.382812 551.285156 411.824219 C 551.492188 411.261719 551.679688 410.695312 551.851562 410.125 C 552.023438 409.554688 552.179688 408.976562 552.316406 408.394531 C 552.453125 407.816406 552.574219 407.230469 552.679688 406.644531 C 552.785156 406.054688 552.871094 405.464844 552.941406 404.871094 C 553.007812 404.28125 553.0625 403.6875 553.097656 403.089844 C 553.132812 402.492188 553.148438 401.898438 553.148438 401.300781 C 553.148438 400.703125 553.132812 400.109375 553.097656 399.511719 C 553.0625 398.914062 553.007812 398.320312 552.941406 397.730469 C 552.871094 397.136719 552.785156 396.546875 552.679688 395.957031 C 552.574219 395.371094 552.453125 394.785156 552.316406 394.207031 C 552.179688 393.625 552.023438 393.046875 551.851562 392.476562 C 551.679688 391.90625 551.492188 391.339844 551.285156 390.777344 C 551.082031 390.21875 550.859375 389.664062 550.625 389.117188 C 550.386719 388.566406 550.132812 388.027344 549.863281 387.496094 C 549.597656 386.960938 549.3125 386.4375 549.011719 385.921875 C 548.714844 385.40625 548.398438 384.898438 548.070312 384.398438 C 547.742188 383.902344 547.398438 383.414062 547.042969 382.933594 C 546.683594 382.457031 546.3125 381.988281 545.929688 381.535156 C 545.542969 381.078125 545.144531 380.632812 544.734375 380.199219 C 544.324219 379.765625 543.902344 379.34375 543.464844 378.9375 C 543.03125 378.527344 542.582031 378.132812 542.125 377.75 C 541.667969 377.367188 541.199219 377 540.71875 376.644531 C 540.238281 376.289062 539.75 375.949219 539.25 375.621094 C 538.75 375.296875 538.242188 374.984375 537.722656 374.6875 C 537.203125 374.390625 536.679688 374.109375 536.144531 373.84375 C 535.609375 373.578125 535.066406 373.328125 534.519531 373.09375 C 533.96875 372.859375 533.414062 372.640625 532.851562 372.441406 C 532.292969 372.238281 531.722656 372.054688 531.152344 371.882812 C 530.578125 371.714844 530.003906 371.5625 529.421875 371.429688 C 528.839844 371.292969 528.253906 371.175781 527.667969 371.074219 C 527.078125 370.972656 526.488281 370.890625 525.894531 370.824219 C 525.300781 370.757812 524.707031 370.707031 524.109375 370.675781 C 523.515625 370.644531 522.917969 370.628906 522.320312 370.632812 C 521.722656 370.636719 521.128906 370.65625 520.53125 370.695312 C 519.9375 370.734375 519.34375 370.789062 518.75 370.859375 C 518.15625 370.933594 517.566406 371.023438 516.980469 371.128906 C 516.394531 371.238281 515.808594 371.359375 515.230469 371.503906 C 514.648438 371.644531 514.074219 371.800781 513.503906 371.976562 C 512.933594 372.152344 512.367188 372.339844 511.808594 372.550781 C 511.25 372.757812 510.695312 372.980469 510.148438 373.222656 C 509.601562 373.460938 509.0625 373.714844 508.53125 373.988281 C 508 374.257812 507.476562 374.546875 506.960938 374.847656 C 506.449219 375.148438 505.941406 375.46875 505.445312 375.796875 C 504.949219 376.128906 504.464844 376.476562 503.988281 376.835938 C 503.511719 377.195312 503.046875 377.570312 502.589844 377.957031 C 502.136719 378.34375 501.695312 378.742188 501.265625 379.15625 C 500.832031 379.570312 500.414062 379.996094 500.007812 380.429688 C 499.601562 380.867188 499.207031 381.316406 498.828125 381.777344 C 498.449219 382.238281 498.082031 382.710938 497.730469 383.191406 C 497.378906 383.671875 497.039062 384.164062 496.714844 384.664062 C 496.390625 385.167969 496.082031 385.675781 495.789062 386.195312 C 495.496094 386.714844 495.21875 387.242188 494.953125 387.78125 C 494.691406 388.316406 494.441406 388.859375 494.210938 389.410156 C 493.980469 389.957031 493.765625 390.515625 493.566406 391.078125 L 389.5 391.078125 L 389.5 380.855469 L 366.089844 380.855469 C 364.699219 376.121094 362.824219 371.589844 360.46875 367.257812 L 377.027344 350.699219 L 358.832031 332.503906 L 358.832031 217.292969 L 573.507812 217.292969 L 573.507812 544.417969 L 21.484375 544.417969 Z M 21.484375 217.292969 " fill-opacity="1" fill-rule="nonzero"/></g><path fill="#c00113" d="M 52.152344 268.40625 L 103.265625 268.40625 L 103.265625 350.1875 C 103.265625 350.859375 103.328125 351.523438 103.460938 352.183594 C 103.589844 352.839844 103.785156 353.480469 104.042969 354.097656 C 104.300781 354.71875 104.613281 355.308594 104.988281 355.867188 C 105.359375 356.425781 105.785156 356.941406 106.257812 357.414062 C 106.734375 357.890625 107.25 358.3125 107.808594 358.6875 C 108.367188 359.058594 108.953125 359.375 109.574219 359.632812 C 110.195312 359.890625 110.835938 360.082031 111.492188 360.214844 C 112.152344 360.34375 112.816406 360.410156 113.488281 360.410156 L 174.824219 360.410156 C 175.496094 360.410156 176.160156 360.34375 176.816406 360.214844 C 177.476562 360.082031 178.113281 359.890625 178.734375 359.632812 C 179.355469 359.375 179.945312 359.058594 180.503906 358.6875 C 181.058594 358.3125 181.578125 357.890625 182.050781 357.414062 C 182.527344 356.941406 182.949219 356.425781 183.324219 355.867188 C 183.695312 355.308594 184.011719 354.71875 184.265625 354.097656 C 184.523438 353.480469 184.71875 352.839844 184.847656 352.183594 C 184.980469 351.523438 185.046875 350.859375 185.046875 350.1875 C 185.046875 349.515625 184.980469 348.851562 184.847656 348.191406 C 184.71875 347.535156 184.523438 346.894531 184.265625 346.273438 C 184.011719 345.65625 183.695312 345.066406 183.324219 344.507812 C 182.949219 343.949219 182.527344 343.433594 182.050781 342.957031 C 181.578125 342.484375 181.058594 342.058594 180.503906 341.6875 C 179.945312 341.316406 179.355469 341 178.734375 340.742188 C 178.113281 340.484375 177.476562 340.292969 176.816406 340.160156 C 176.160156 340.03125 175.496094 339.964844 174.824219 339.964844 L 123.710938 339.964844 L 123.710938 258.183594 C 123.710938 257.511719 123.644531 256.847656 123.511719 256.1875 C 123.382812 255.53125 123.1875 254.890625 122.929688 254.269531 C 122.675781 253.652344 122.359375 253.0625 121.988281 252.503906 C 121.613281 251.945312 121.191406 251.429688 120.714844 250.953125 C 120.242188 250.480469 119.722656 250.054688 119.167969 249.683594 C 118.609375 249.308594 118.019531 248.996094 117.398438 248.738281 C 116.777344 248.480469 116.140625 248.289062 115.480469 248.15625 C 114.824219 248.027344 114.15625 247.960938 113.488281 247.960938 L 52.152344 247.960938 C 51.480469 247.960938 50.816406 248.027344 50.15625 248.15625 C 49.5 248.289062 48.859375 248.480469 48.238281 248.738281 C 47.617188 248.996094 47.03125 249.308594 46.472656 249.683594 C 45.914062 250.054688 45.398438 250.480469 44.921875 250.953125 C 44.449219 251.429688 44.023438 251.945312 43.652344 252.503906 C 43.277344 253.0625 42.964844 253.652344 42.707031 254.269531 C 42.449219 254.890625 42.253906 255.53125 42.125 256.1875 C 41.992188 256.847656 41.929688 257.511719 41.929688 258.183594 C 41.929688 258.855469 41.992188 259.519531 42.125 260.175781 C 42.253906 260.835938 42.449219 261.476562 42.707031 262.09375 C 42.964844 262.714844 43.277344 263.304688 43.652344 263.863281 C 44.023438 264.421875 44.449219 264.9375 44.921875 265.410156 C 45.398438 265.886719 45.914062 266.308594 46.472656 266.683594 C 47.03125 267.054688 47.617188 267.371094 48.238281 267.628906 C 48.859375 267.882812 49.5 268.078125 50.15625 268.210938 C 50.816406 268.339844 51.480469 268.40625 52.152344 268.40625 Z M 52.152344 268.40625 " fill-opacity="1" fill-rule="nonzero"/><path fill="#c00113" d="M 532.617188 247.960938 L 471.28125 247.960938 C 470.609375 247.960938 469.945312 248.027344 469.285156 248.15625 C 468.628906 248.289062 467.988281 248.480469 467.367188 248.738281 C 466.75 248.996094 466.160156 249.308594 465.601562 249.683594 C 465.042969 250.054688 464.527344 250.480469 464.050781 250.953125 C 463.578125 251.429688 463.152344 251.945312 462.78125 252.503906 C 462.40625 253.0625 462.09375 253.652344 461.835938 254.269531 C 461.578125 254.890625 461.386719 255.53125 461.253906 256.1875 C 461.125 256.847656 461.058594 257.511719 461.058594 258.183594 L 461.058594 339.964844 L 409.945312 339.964844 C 409.273438 339.964844 408.609375 340.03125 407.949219 340.160156 C 407.292969 340.292969 406.652344 340.484375 406.03125 340.742188 C 405.414062 341 404.824219 341.316406 404.265625 341.6875 C 403.707031 342.058594 403.191406 342.484375 402.714844 342.957031 C 402.242188 343.433594 401.816406 343.949219 401.445312 344.507812 C 401.070312 345.066406 400.757812 345.65625 400.5 346.273438 C 400.242188 346.894531 400.050781 347.535156 399.917969 348.191406 C 399.789062 348.851562 399.722656 349.515625 399.722656 350.1875 C 399.722656 350.859375 399.789062 351.523438 399.917969 352.183594 C 400.050781 352.839844 400.242188 353.480469 400.5 354.097656 C 400.757812 354.71875 401.070312 355.308594 401.445312 355.867188 C 401.816406 356.425781 402.242188 356.941406 402.714844 357.414062 C 403.191406 357.890625 403.707031 358.3125 404.265625 358.6875 C 404.824219 359.058594 405.414062 359.375 406.03125 359.632812 C 406.652344 359.890625 407.292969 360.082031 407.949219 360.214844 C 408.609375 360.34375 409.273438 360.410156 409.945312 360.410156 L 471.28125 360.410156 C 471.953125 360.410156 472.617188 360.34375 473.273438 360.214844 C 473.933594 360.082031 474.574219 359.890625 475.191406 359.632812 C 475.8125 359.375 476.402344 359.058594 476.960938 358.6875 C 477.519531 358.3125 478.035156 357.890625 478.507812 357.414062 C 478.984375 356.941406 479.40625 356.425781 479.78125 355.867188 C 480.152344 355.308594 480.46875 354.71875 480.726562 354.097656 C 480.980469 353.480469 481.175781 352.839844 481.308594 352.183594 C 481.4375 351.523438 481.503906 350.859375 481.503906 350.1875 L 481.503906 268.40625 L 532.617188 268.40625 C 533.289062 268.40625 533.953125 268.339844 534.609375 268.210938 C 535.269531 268.078125 535.910156 267.882812 536.527344 267.628906 C 537.148438 267.371094 537.738281 267.054688 538.296875 266.683594 C 538.855469 266.308594 539.371094 265.886719 539.84375 265.410156 C 540.320312 264.9375 540.742188 264.421875 541.117188 263.863281 C 541.488281 263.304688 541.804688 262.714844 542.0625 262.09375 C 542.316406 261.476562 542.511719 260.835938 542.644531 260.175781 C 542.773438 259.519531 542.839844 258.855469 542.839844 258.183594 C 542.839844 257.511719 542.773438 256.847656 542.644531 256.1875 C 542.511719 255.53125 542.316406 254.890625 542.0625 254.269531 C 541.804688 253.652344 541.488281 253.0625 541.117188 252.503906 C 540.742188 251.945312 540.320312 251.429688 539.84375 250.953125 C 539.371094 250.480469 538.855469 250.054688 538.296875 249.683594 C 537.738281 249.308594 537.148438 248.996094 536.527344 248.738281 C 535.910156 248.480469 535.269531 248.289062 534.609375 248.15625 C 533.953125 248.027344 533.289062 247.960938 532.617188 247.960938 Z M 532.617188 247.960938 " fill-opacity="1" fill-rule="nonzero"/></svg>